<?xml version="1.0" encoding="UTF-8" standalone="no"?>
<!-- Created with Inkscape (http://www.inkscape.org/) -->

<svg
   width="42mm"
   height="42mm"
   viewBox="0 0 42 42"
   version="1.1"
   id="svg298174"
   inkscape:version="1.1 (ce6663b3b7, 2021-05-25)"
   sodipodi:docname="53_cortacesped.svg"
   xmlns:inkscape="http://www.inkscape.org/namespaces/inkscape"
   xmlns:sodipodi="http://sodipodi.sourceforge.net/DTD/sodipodi-0.dtd"
   xmlns="http://www.w3.org/2000/svg"
   xmlns:svg="http://www.w3.org/2000/svg">
  <sodipodi:namedview
     id="namedview298176"
     pagecolor="#ffffff"
     bordercolor="#666666"
     borderopacity="1.0"
     inkscape:pageshadow="2"
     inkscape:pageopacity="0.0"
     inkscape:pagecheckerboard="0"
     inkscape:document-units="mm"
     showgrid="false"
     inkscape:zoom="0.67081229"
     inkscape:cx="547.84327"
     inkscape:cy="283.98406"
     inkscape:window-width="1866"
     inkscape:window-height="1016"
     inkscape:window-x="54"
     inkscape:window-y="27"
     inkscape:window-maximized="1"
     inkscape:current-layer="layer1" />
  <defs
     id="defs298171" />
  <g
     inkscape:label="Capa 1"
     inkscape:groupmode="layer"
     id="layer1"
     transform="translate(39.93227,-73.26693)">
    <g
       id="g68347"
       transform="matrix(0.08136359,0,0,0.08136359,-39.761349,73.437851)"
       style="display:inline">
      <path
         d="m 452,331 c -33.137,0 -60,26.862 -60,60 0,33.137 26.863,60 60,60 33.137,0 60,-26.863 60,-60 0,-33.138 -26.863,-60 -60,-60 z m 0,75 c -8.284,0 -15,-6.716 -15,-15 0,-8.286 6.716,-15 15,-15 8.284,0 15,6.714 15,15 0,8.284 -6.716,15 -15,15 z"
         id="path68339" />
      <path
         d="m 31,376 c 0,41.42 33.578,75 75,75 41.422,0 75,-33.58 75,-75 0,-41.422 -33.578,-75 -75,-75 -41.422,0 -75,33.578 -75,75 z m 90,0 c 0,8.284 -6.716,15 -15,15 -8.284,0 -15,-6.716 -15,-15 0,-8.286 6.716,-15 15,-15 8.284,0 15,6.714 15,15 z"
         id="path68341" />
      <path
         d="m 241.908,162.265 c -20.16,-4.854 -39.69,5.16 -49.158,21.901 48.918,5.753 81.969,18.459 110.891,30.027 19.446,7.775 37.057,14.709 59.247,19.618 -0.894,-17.565 -11.499,-33.448 -28.793,-39.921 -26.486,-9.885 -54.158,-22.587 -92.187,-31.625 z"
         id="path68343" />
      <path
         d="m 15,91 h 50.849 l 54.565,136.436 -8.824,44.13 C 166.84,274.539 211,320.023 211,376 c 0,5.136 -0.8,10.058 -1.516,15 H 362 c 0,-45.383 33.875,-82.639 77.6,-88.748 -11.935,-18.636 -30.921,-31.373 -53.02,-34.006 -40.62,-4.819 -66.548,-15.19 -94.014,-26.177 -36.489,-14.59 -75.15,-29.663 -146.371,-30.981 L 89.931,70.434 C 87.646,64.735 82.138,61 76,61 H 15 C 6.709,61 0,67.709 0,76 0,84.291 6.709,91 15,91 Z m 241,210 h 61 c 8.291,0 15,6.709 15,15 0,8.291 -6.709,15 -15,15 h -61 c -8.291,0 -15,-6.709 -15,-15 0,-8.291 6.709,-15 15,-15 z"
         id="path68345" />
    </g>
  </g>
</svg>
