<?xml version="1.0" encoding="UTF-8" standalone="no"?>
<!-- Created with Inkscape (http://www.inkscape.org/) -->

<svg
   width="42mm"
   height="42mm"
   viewBox="0 0 42 42"
   version="1.1"
   id="svg299380"
   inkscape:version="1.1 (ce6663b3b7, 2021-05-25)"
   sodipodi:docname="55_hojas.svg"
   xmlns:inkscape="http://www.inkscape.org/namespaces/inkscape"
   xmlns:sodipodi="http://sodipodi.sourceforge.net/DTD/sodipodi-0.dtd"
   xmlns="http://www.w3.org/2000/svg"
   xmlns:svg="http://www.w3.org/2000/svg">
  <sodipodi:namedview
     id="namedview299382"
     pagecolor="#ffffff"
     bordercolor="#666666"
     borderopacity="1.0"
     inkscape:pageshadow="2"
     inkscape:pageopacity="0.0"
     inkscape:pagecheckerboard="0"
     inkscape:document-units="mm"
     showgrid="false"
     inkscape:zoom="0.67081229"
     inkscape:cx="209.44756"
     inkscape:cy="40.995075"
     inkscape:window-width="1866"
     inkscape:window-height="1016"
     inkscape:window-x="54"
     inkscape:window-y="27"
     inkscape:window-maximized="1"
     inkscape:current-layer="layer1" />
  <defs
     id="defs299377" />
  <g
     inkscape:label="Capa 1"
     inkscape:groupmode="layer"
     id="layer1"
     transform="translate(-49.601593,-137.55777)">
    <g
       id="g298701"
       transform="matrix(0.06668707,0,0,0.06668707,53.529747,141.48588)"
       style="display:inline">
      <g
         id="g298646">
        <g
           id="g298644">
          <path
             d="M 511.527,16.366 C 511.125,7.762 504.239,0.883 495.635,0.469 485.247,-0.015 238.875,-10.424 128.602,99.86 90.793,137.669 69.963,188.015 69.963,241.624 c 0,47.987 16.702,93.356 47.321,129.465 L 4.894,483.476 c -6.526,6.52 -6.526,17.104 0,23.626 3.264,3.263 7.538,4.895 11.812,4.895 4.274,0 8.55,-1.632 11.812,-4.895 L 140.91,394.711 c 37.231,31.535 83.341,47.311 129.455,47.311 51.352,0 102.693,-19.547 141.775,-58.629 C 522.426,273.108 512.027,26.797 511.527,16.366 Z m -99.386,218.34 H 300.919 l -72.912,72.911 h 77.808 c 9.224,0 16.708,7.478 16.708,16.708 0,9.23 -7.484,16.708 -16.708,16.708 H 194.592 l -29.951,29.95 c -4.275,-3.499 -8.426,-7.227 -12.414,-11.214 -3.97,-3.971 -7.711,-8.111 -11.225,-12.399 l 29.967,-29.967 V 206.179 c 0,-9.229 7.484,-16.708 16.708,-16.708 9.224,0 16.708,7.478 16.708,16.708 v 77.808 l 72.911,-72.91 V 99.854 c 0,-9.229 7.484,-16.708 16.708,-16.708 9.224,0 16.708,7.478 16.708,16.708 v 77.809 l 77.806,-77.804 c 6.526,-6.526 17.1,-6.526 23.626,0 6.526,6.52 6.526,17.104 0,23.626 l -77.807,77.806 h 77.807 c 9.224,0 16.708,7.478 16.708,16.708 0,9.23 -7.487,16.707 -16.711,16.707 z"
             id="path298642" />
        </g>
      </g>
      <g
         id="g298648" />
      <g
         id="g298650" />
      <g
         id="g298652" />
      <g
         id="g298654" />
      <g
         id="g298656" />
      <g
         id="g298658" />
      <g
         id="g298660" />
      <g
         id="g298662" />
      <g
         id="g298664" />
      <g
         id="g298666" />
      <g
         id="g298668" />
      <g
         id="g298670" />
      <g
         id="g298672" />
      <g
         id="g298674" />
      <g
         id="g298676" />
    </g>
  </g>
</svg>
