<?xml version="1.0" encoding="UTF-8" standalone="no"?>
<!-- Created with Inkscape (http://www.inkscape.org/) -->

<svg
   width="42mm"
   height="42mm"
   viewBox="0 0 42 42"
   version="1.1"
   id="svg176647"
   inkscape:version="1.1 (ce6663b3b7, 2021-05-25)"
   sodipodi:docname="1_doblar_ropa.svg"
   xmlns:inkscape="http://www.inkscape.org/namespaces/inkscape"
   xmlns:sodipodi="http://sodipodi.sourceforge.net/DTD/sodipodi-0.dtd"
   xmlns="http://www.w3.org/2000/svg"
   xmlns:svg="http://www.w3.org/2000/svg">
  <sodipodi:namedview
     id="namedview176649"
     pagecolor="#ffffff"
     bordercolor="#666666"
     borderopacity="1.0"
     inkscape:pageshadow="2"
     inkscape:pageopacity="0.0"
     inkscape:pagecheckerboard="0"
     inkscape:document-units="mm"
     showgrid="false"
     inkscape:zoom="0.67081229"
     inkscape:cx="79.754055"
     inkscape:cy="79.754055"
     inkscape:window-width="1866"
     inkscape:window-height="1016"
     inkscape:window-x="54"
     inkscape:window-y="27"
     inkscape:window-maximized="1"
     inkscape:current-layer="layer1" />
  <defs
     id="defs176644" />
  <g
     inkscape:label="Capa 1"
     inkscape:groupmode="layer"
     id="layer1"
     transform="translate(-84,-127.5)">
    <g
       id="g176011"
       transform="matrix(0.07713413,0,0,0.07713413,85.253663,128.75366)">
      <path
         d="m 22.5,512 h 226 C 260.92578,512 271,501.92578 271,489.5 271,477.07422 260.92578,467 248.5,467 H 22.5 C 10.074219,467 0,477.07422 0,489.5 0,501.92578 10.074219,512 22.5,512 Z m 0,0"
         id="path175990" />
      <path
         d="m 22.5,437 h 226 C 260.92578,437 271,426.92578 271,414.5 271,402.07422 260.92578,392 248.5,392 H 22.5 C 10.074219,392 0,402.07422 0,414.5 0,426.92578 10.074219,437 22.5,437 Z m 0,0"
         id="path175992" />
      <path
         d="m 61,331 h 75 V 271 H 68.289062 Z m 0,0"
         id="path175994" />
      <path
         d="m 436,271 v 60 h 76 l -7.28906,-60 z m 0,0"
         id="path175996" />
      <path
         d="m 271,45 c 0,-8.277344 6.72266,-15 15,-15 8.27734,0 15,6.722656 15,15 0,8.277344 -6.72266,15 -15,15 H 271 V 95.726562 L 222.45312,120 h -40.20703 c -51.55078,0 -95.097652,37.89844 -103.582028,88.74219 L 73.289062,241 H 136 v -30 h 30 v 151 h 82.5 c 28.94531,0 52.5,23.55469 52.5,52.5 0,14.69531 -6.10938,27.96094 -15.875,37.5 9.76562,9.53906 15.875,22.80469 15.875,37.5 0,8.08203 -1.98828,15.65234 -5.26563,22.5 H 406 V 211 h 30 v 30 h 63.71094 l -5.375,-32.25781 C 485.85156,157.89844 441.30469,120 389.75391,120 H 349.54687 L 301,95.726562 V 87.4375 C 318.46094,81.238281 331,64.554688 331,45 331,20.1875 310.8125,0 286,0 261.1875,0 241,20.1875 241,45 Z m 59.10937,98.82422 C 325.99219,164.42578 307.78906,180 286,180 264.21094,180 246.00781,164.42578 241.89062,143.82422 L 286,121.77344 Z m 0,0"
         id="path175998" />
    </g>
  </g>
</svg>
