<?xml version="1.0" encoding="UTF-8" standalone="no"?>
<!-- Created with Inkscape (http://www.inkscape.org/) -->

<svg
   width="42mm"
   height="42mm"
   viewBox="0 0 42 42"
   version="1.1"
   id="svg187950"
   inkscape:version="1.1 (ce6663b3b7, 2021-05-25)"
   sodipodi:docname="13_cristales.svg"
   xmlns:inkscape="http://www.inkscape.org/namespaces/inkscape"
   xmlns:sodipodi="http://sodipodi.sourceforge.net/DTD/sodipodi-0.dtd"
   xmlns="http://www.w3.org/2000/svg"
   xmlns:svg="http://www.w3.org/2000/svg">
  <sodipodi:namedview
     id="namedview187952"
     pagecolor="#ffffff"
     bordercolor="#666666"
     borderopacity="1.0"
     inkscape:pageshadow="2"
     inkscape:pageopacity="0.0"
     inkscape:pagecheckerboard="0"
     inkscape:document-units="mm"
     showgrid="false"
     inkscape:zoom="0.67081229"
     inkscape:cx="206.4661"
     inkscape:cy="500.13991"
     inkscape:window-width="1866"
     inkscape:window-height="1016"
     inkscape:window-x="54"
     inkscape:window-y="27"
     inkscape:window-maximized="1"
     inkscape:current-layer="layer1" />
  <defs
     id="defs187947" />
  <g
     inkscape:label="Capa 1"
     inkscape:groupmode="layer"
     id="layer1"
     transform="translate(-50.390438,-16.075695)">
    <g
       id="g57226"
       transform="matrix(0.12651931,0,0,0.12651931,50.812882,16.498136)">
      <g
         id="g57169">
        <path
           d="M 253.444,99.011 C 273.356,82.354 293.268,65.697 313.181,49.04 324.706,38.786 331.427,25.872 317.373,11.817 303.319,-2.238 290.401,4.479 280.152,16.01 263.493,35.921 246.836,55.834 230.18,75.747 L 171.326,16.893 C 157.577,3.144 135.285,3.144 121.535,16.894 l -7.979,7.978 5.173,5.173 -17.189,17.19 c -3.739,3.738 -5.798,8.708 -5.798,13.994 0,5.286 2.06,10.256 5.798,13.994 l 152.425,152.426 c 3.738,3.738 8.708,5.796 13.994,5.796 5.287,0 10.257,-2.059 13.994,-5.796 l 17.19,-17.191 5.174,5.174 7.979,-7.979 c 13.749,-13.75 13.749,-36.042 -10e-4,-49.791 z M 293.568,24.31 c 3.124,-3.123 8.19,-3.123 11.314,0 3.124,3.125 3.124,8.19 0,11.315 -3.124,3.124 -8.189,3.124 -11.314,0 -3.124,-3.124 -3.124,-8.19 0,-11.315 z M 268.99,214.689 c -0.352,0.352 -0.754,0.426 -1.029,0.426 -0.275,0 -0.677,-0.074 -1.03,-0.427 L 114.505,62.261 c -0.353,-0.353 -0.426,-0.754 -0.426,-1.029 0,-0.275 0.073,-0.677 0.427,-1.03 l 17.19,-17.191 154.486,154.486 z"
           id="path57161" />
        <path
           d="M 175.062,197.554 59.763,312.852 c -1.953,1.953 -1.953,5.119 0,7.071 0.976,0.976 2.255,1.464 3.536,1.464 1.279,0 2.559,-0.488 3.536,-1.464 L 182.134,204.625 c 1.953,-1.953 1.953,-5.119 0,-7.071 -1.953,-1.952 -5.118,-1.952 -7.072,0 z"
           id="path57163" />
        <path
           d="m 123.835,139.254 c -1.952,-1.951 -5.117,-1.952 -7.071,0 L 1.464,254.552 c -1.953,1.953 -1.953,5.119 0,7.071 0.977,0.976 2.255,1.464 3.536,1.464 1.279,0 2.559,-0.488 3.536,-1.464 L 123.835,146.325 c 1.952,-1.952 1.952,-5.118 0,-7.071 z"
           id="path57165" />
        <path
           d="m 59.763,262.932 c 0.976,0.976 2.255,1.464 3.536,1.464 1.279,0 2.559,-0.488 3.536,-1.464 l 72.671,-72.672 c 1.953,-1.953 1.953,-5.119 0,-7.071 -1.954,-1.952 -5.118,-1.952 -7.071,0 l -72.671,72.672 c -1.953,1.952 -1.953,5.118 -0.001,7.071 z"
           id="path57167" />
      </g>
      <g
         id="g57171" />
      <g
         id="g57173" />
      <g
         id="g57175" />
      <g
         id="g57177" />
      <g
         id="g57179" />
      <g
         id="g57181" />
      <g
         id="g57183" />
      <g
         id="g57185" />
      <g
         id="g57187" />
      <g
         id="g57189" />
      <g
         id="g57191" />
      <g
         id="g57193" />
      <g
         id="g57195" />
      <g
         id="g57197" />
      <g
         id="g57199" />
    </g>
  </g>
</svg>
