<?xml version="1.0" encoding="UTF-8" standalone="no"?>
<!-- Created with Inkscape (http://www.inkscape.org/) -->

<svg
   width="42mm"
   height="42mm"
   viewBox="0 0 42 42"
   version="1.1"
   id="svg190125"
   inkscape:version="1.1 (ce6663b3b7, 2021-05-25)"
   sodipodi:docname="14_planchar.svg"
   xmlns:inkscape="http://www.inkscape.org/namespaces/inkscape"
   xmlns:sodipodi="http://sodipodi.sourceforge.net/DTD/sodipodi-0.dtd"
   xmlns="http://www.w3.org/2000/svg"
   xmlns:svg="http://www.w3.org/2000/svg">
  <sodipodi:namedview
     id="namedview190127"
     pagecolor="#ffffff"
     bordercolor="#666666"
     borderopacity="1.0"
     inkscape:pageshadow="2"
     inkscape:pageopacity="0.0"
     inkscape:pagecheckerboard="0"
     inkscape:document-units="mm"
     showgrid="false"
     inkscape:zoom="0.67081229"
     inkscape:cx="-9.689745"
     inkscape:cy="535.91743"
     inkscape:window-width="1866"
     inkscape:window-height="1016"
     inkscape:window-x="54"
     inkscape:window-y="27"
     inkscape:window-maximized="1"
     inkscape:current-layer="layer1" />
  <defs
     id="defs190122" />
  <g
     inkscape:label="Capa 1"
     inkscape:groupmode="layer"
     id="layer1"
     transform="translate(-107.58167,-6.6095629)">
    <g
       id="g68228"
       transform="matrix(0.06452837,0,0,0.06452837,112.06241,11.0903)">
      <path
         d="M 497,474 H 15 c -8.291,0 -15,6.709 -15,15 0,8.291 6.709,15 15,15 h 482 c 8.291,0 15,-6.709 15,-15 0,-8.291 -6.709,-15 -15,-15 z"
         id="path68220" />
      <path
         d="m 0,429 c 0,8.401 6.599,15 15,15 h 392 c 8.401,0 15,-6.599 15,-15 0,-24.901 20.099,-45 45,-45 H 45 C 20.444,384 0,403.655 0,429 Z"
         id="path68222" />
      <path
         d="m 256,264 h 121 c 8.276,0 15,-6.724 15,-15 0,-8.276 -6.724,-15 -15,-15 H 256 c -8.276,0 -15,6.724 -15,15 0,8.276 6.724,15 15,15 z"
         id="path68224" />
      <path
         d="M 30.8,355.536 C 35.25,354.643 39.994,354 45,354 h 451.996 c 9.13,0 16.141,-8.084 14.85,-17.122 L 482,156.9 V 144 c 0,-41.353 -33.647,-75 -75,-75 h -30 c -24.814,0 -45,-21.186 -45,-46 0,-8.291 -6.709,-15 -15,-15 -8.291,0 -15,6.709 -15,15 0,41.353 33.647,76 75,76 h 30 c 24.814,0 45,20.186 45,45 H 246.4 C 135.379,144 38.956,256.98 30.8,355.536 Z M 166,324 h -30 c -8.291,0 -15,-6.709 -15,-15 0,-8.291 6.709,-15 15,-15 h 30 c 8.291,0 15,6.709 15,15 0,8.291 -6.709,15 -15,15 z M 377,204 c 24.814,0 45,20.186 45,45 0,24.814 -20.186,45 -45,45 H 256 c -24.814,0 -45,-20.186 -45,-45 0,-24.814 20.186,-45 45,-45 z"
         id="path68226" />
    </g>
  </g>
</svg>
