<?xml version="1.0" encoding="UTF-8" standalone="no"?>
<!-- Created with Inkscape (http://www.inkscape.org/) -->

<svg
   width="42mm"
   height="42mm"
   viewBox="0 0 42 42"
   version="1.1"
   id="svg192564"
   inkscape:version="1.1 (ce6663b3b7, 2021-05-25)"
   sodipodi:docname="15_ordenar.svg"
   xmlns:inkscape="http://www.inkscape.org/namespaces/inkscape"
   xmlns:sodipodi="http://sodipodi.sourceforge.net/DTD/sodipodi-0.dtd"
   xmlns="http://www.w3.org/2000/svg"
   xmlns:svg="http://www.w3.org/2000/svg">
  <sodipodi:namedview
     id="namedview192566"
     pagecolor="#ffffff"
     bordercolor="#666666"
     borderopacity="1.0"
     inkscape:pageshadow="2"
     inkscape:pageopacity="0.0"
     inkscape:pagecheckerboard="0"
     inkscape:document-units="mm"
     showgrid="false"
     inkscape:zoom="0.67081229"
     inkscape:cx="51.430185"
     inkscape:cy="354.04837"
     inkscape:window-width="1866"
     inkscape:window-height="1016"
     inkscape:window-x="54"
     inkscape:window-y="27"
     inkscape:window-maximized="1"
     inkscape:current-layer="layer1" />
  <defs
     id="defs192561" />
  <g
     inkscape:label="Capa 1"
     inkscape:groupmode="layer"
     id="layer1"
     transform="translate(-91.410355,-54.72908)">
    <path
       d="m 115.956,62.649619 c 0,-1.50162 -0.88642,-7.09127 -3.54565,-7.09127 -2.65923,0 -3.54564,5.58965 -3.54564,7.09127 0,2.09279 0.97687,3.80936 2.36377,4.44718 v 5.00786 h -1.55843 c -0.48103,-1.13712 -1.56134,-3.29862 -3.40382,-5.38235 1.54527,-2.29671 1.30858,-5.44572 -0.71977,-7.47517 l -3.34251,-3.34251 c -0.46164,-0.46164 -1.20961,-0.46164 -1.67125,0 -1.365387,1.36539 -1.921737,3.23866 -1.668975,5.01724 -1.790157,-0.25624 -3.654136,0.30358 -5.017234,1.66897 -0.461644,0.46165 -0.461644,1.20962 0,1.67126 l 3.342511,3.34252 c 2.008566,2.00857 5.106818,2.2577 7.392498,0.77585 1.16329,1.33901 1.97122,2.70667 2.47777,3.72428 h -1.7402 c -0.47669,0 -0.90721,0.28735 -1.09071,0.72826 -0.18351,0.44092 -0.0831,0.94873 0.25394,1.28809 0.56093,0.56549 2.01865,2.36826 2.01865,3.89296 0,0.55289 -0.75711,1.54574 -1.49003,2.42987 -1.36657,1.64927 -3.23749,3.98798 -3.23749,7.18276 0,5.28844 3.3552,8.22699 9.45505,8.27315 h 2.37297 c 6.09063,-0.0462 9.44583,-2.98471 9.44583,-8.27315 0,-3.19478 -1.87092,-5.53349 -3.23749,-7.18276 -0.73292,-0.88413 -1.49003,-1.87698 -1.49003,-2.42987 0,-1.5247 1.45772,-3.32747 2.01865,-3.89303 0.33699,-0.33936 0.43745,-0.84717 0.25394,-1.28809 -0.18351,-0.44092 -0.61402,-0.72828 -1.09071,-0.72828 h -1.7402 c 0.50655,-1.01743 1.31432,-2.38496 2.47761,-3.72379 2.28914,1.485 5.38772,1.22846 7.39266,-0.77634 l 3.34251,-3.34251 c 0.46164,-0.46164 0.46164,-1.20962 0,-1.67126 -1.3642,-1.3642 -3.22936,-1.92283 -5.01723,-1.66897 0.25276,-1.77857 -0.30359,-3.65185 -1.66898,-5.01723 -0.46164,-0.46165 -1.20961,-0.46165 -1.67125,0 l -3.34252,3.34251 c -2.02834,2.02945 -2.26511,5.17853 -0.71976,7.47516 -1.84248,2.08372 -2.92279,4.24523 -3.40382,5.38235 h -1.55842 v -5.00786 c 1.38689,-0.63774 2.36376,-2.35431 2.36376,-4.4471 z"
       id="path79626"
       style="stroke-width:0.0787918" />
  </g>
</svg>
