<?xml version="1.0" encoding="UTF-8" standalone="no"?>
<!-- Created with Inkscape (http://www.inkscape.org/) -->

<svg
   width="42mm"
   height="42mm"
   viewBox="0 0 42 42"
   version="1.1"
   id="svg217052"
   inkscape:version="1.1 (ce6663b3b7, 2021-05-25)"
   sodipodi:docname="16_duster.svg"
   xmlns:inkscape="http://www.inkscape.org/namespaces/inkscape"
   xmlns:sodipodi="http://sodipodi.sourceforge.net/DTD/sodipodi-0.dtd"
   xmlns="http://www.w3.org/2000/svg"
   xmlns:svg="http://www.w3.org/2000/svg">
  <sodipodi:namedview
     id="namedview217054"
     pagecolor="#ffffff"
     bordercolor="#666666"
     borderopacity="1.0"
     inkscape:pageshadow="2"
     inkscape:pageopacity="0.0"
     inkscape:pagecheckerboard="0"
     inkscape:document-units="mm"
     showgrid="false"
     inkscape:zoom="0.67081229"
     inkscape:cx="-243.73435"
     inkscape:cy="233.29924"
     inkscape:window-width="1866"
     inkscape:window-height="1016"
     inkscape:window-x="54"
     inkscape:window-y="27"
     inkscape:window-maximized="1"
     inkscape:current-layer="layer1" />
  <defs
     id="defs217049" />
  <g
     inkscape:label="Capa 1"
     inkscape:groupmode="layer"
     id="layer1"
     transform="translate(-169.50598,-86.677284)">
    <path
       id="rect211388"
       style="fill:#000000;fill-opacity:1;stroke:none;stroke-width:3.23268;stroke-linecap:round;stroke-linejoin:round;stroke-miterlimit:4;stroke-dasharray:none;stop-color:#000000"
       inkscape:transform-center-x="2.6200729"
       inkscape:transform-center-y="-9.0975858"
       d="m 196.48604,88.067721 a 1.1909205,1.1909205 0 0 0 -0.84284,0.347265 1.1909205,1.1909205 0 0 0 -0.003,1.684137 1.1909205,1.1909205 0 0 0 1.68413,0.0031 1.1909205,1.1909205 0 0 0 0.003,-1.684136 1.1909205,1.1909205 0 0 0 -0.8413,-0.350367 z m 4.15996,0.348816 a 1.0102892,1.0102892 0 0 0 -0.64286,0.291973 1.0102892,1.0102892 0 0 0 -0.003,1.429369 1.0102892,1.0102892 0 0 0 1.42885,0.0021 1.0102892,1.0102892 0 0 0 0.003,-1.428337 1.0102892,1.0102892 0 0 0 -0.786,-0.295074 z m 2.48512,2.439646 a 1.4154374,1.4154374 0 0 0 -0.91623,0.409794 1.4154374,1.4154374 0 0 0 -0.004,2.001944 1.4154374,1.4154374 0 0 0 2.00142,0.0036 1.4154374,1.4154374 0 0 0 0.004,-2.001428 1.4154374,1.4154374 0 0 0 -1.08521,-0.413927 z m -8.65064,2.585371 c -0.63597,0.02437 -1.19385,0.422269 -1.42885,1.005107 -0.30185,-0.496581 -0.86195,-0.811496 -1.48415,-0.770496 -0.89149,0.0587 -1.56198,0.823661 -1.50327,1.71514 l 0.44804,6.804235 0.30231,0.30386 1.18339,-3.71347 c 0.40866,-1.282358 1.77966,-2.016119 3.06441,-1.628841 h 5.3e-4 c 1.28466,0.387221 2.00022,1.770349 1.59163,3.052531 l -0.21652,0.68161 1.07797,-1.073837 c 0.95853,-0.954982 2.52519,-0.949926 3.48041,0.0078 0.001,5.29e-4 0.002,-5.29e-4 0.002,0 a 0.60504548,0.60504548 0 0 1 0.1757,0.431497 c 0.629,0.95592 0.65673,2.21426 -0.18345,3.05098 l -1.15445,1.15032 0.79685,-0.24391 c 1.29449,-0.39552 2.67874,0.34009 3.07423,1.63452 0.39545,1.29432 -0.3402,2.67878 -1.63453,3.07423 l -3.72742,1.13843 0.33228,0.33332 6.83421,0.43666 c 0.88539,0.0565 1.65238,-0.61036 1.71979,-1.495 l 10e-4,-0.005 c 0.0471,-0.61728 -0.2595,-1.17265 -0.74983,-1.47123 0.66456,-0.26838 1.09318,-0.95543 1.00304,-1.69706 -0.0824,-0.67774 -0.57338,-1.19685 -1.19734,-1.34617 0.49402,-0.41855 0.70751,-1.10828 0.48679,-1.75286 -0.22701,-0.66289 -0.84366,-1.07271 -1.50792,-1.06712 0.62587,-0.50079 0.80116,-1.39109 0.37931,-2.087211 -0.34652,-0.57182 -0.99353,-0.843433 -1.61747,-0.738973 0.16546,-0.387872 0.171,-0.825114 0.0191,-1.214914 -0.0682,-0.22619 -0.18767,-0.440132 -0.36019,-0.62425 -0.0189,-0.02011 -0.0385,-0.04001 -0.0579,-0.05891 v -5.29e-4 c -0.49686,-0.478811 -1.2333,-0.57 -1.83038,-0.265102 0.10461,-0.627248 -0.17009,-1.281631 -0.74672,-1.636591 -0.70119,-0.431631 -1.5964,-0.26511 -2.0991,0.359151 0.004,-0.668182 -0.4096,-1.29331 -1.07693,-1.528588 -0.64905,-0.228801 -1.34258,-0.02053 -1.76269,0.472321 -0.15143,-0.629521 -0.67477,-1.129118 -1.35702,-1.219047 -0.0933,-0.0123 -0.18613,-0.0164 -0.27699,-0.01291 z m -0.13746,4.819861 c -0.52963,0.0035 -1.01918,0.34693 -1.19269,0.891418 l -1.37356,4.312397 5.60276,5.6255 4.33927,-1.32654 c 0.67355,-0.20578 1.03572,-0.88861 0.82992,-1.56217 -0.20575,-0.67345 -0.88932,-1.03773 -1.56269,-0.83199 l -3.12694,0.95497 a 0.60504548,0.60504548 0 0 1 -0.60358,-1.00613 l 2.88096,-2.86908 c 0.49904,-0.49689 0.5014,-1.27244 0.004,-1.77147 -0.49689,-0.49905 -1.27245,-0.50088 -1.77146,-0.004 l -2.83394,2.82205 a 0.60504548,0.60504548 0 0 1 -1.00201,-0.6134 l 0.96894,-3.041161 c 0.21361,-0.67034 -0.13257,-1.32915 -0.7891,-1.52704 h -5.3e-4 c -0.12308,-0.0371 -0.24726,-0.05455 -0.36949,-0.05374 z m -5.01261,5.333525 -1.45624,1.45004 c -0.65217,0.64947 -0.7234,1.654 -0.21446,2.38228 l 5.76606,5.79035 c 0.72615,0.51197 1.73113,0.44431 2.38331,-0.20516 l 1.45573,-1.45004 z m -1.0697,6.51485 -14.22911,14.16968 a 1.7599529,1.7599529 0 0 0 -0.003,2.48976 1.7599529,1.7599529 0 0 0 2.48822,0.005 l 14.22859,-14.17019 z" />
  </g>
</svg>
