<?xml version="1.0" encoding="UTF-8" standalone="no"?>
<!-- Created with Inkscape (http://www.inkscape.org/) -->

<svg
   width="42mm"
   height="42mm"
   viewBox="0 0 42 42"
   version="1.1"
   id="svg6410"
   inkscape:version="1.1 (ce6663b3b7, 2021-05-25)"
   sodipodi:docname="17_lavar_platos.svg"
   xmlns:inkscape="http://www.inkscape.org/namespaces/inkscape"
   xmlns:sodipodi="http://sodipodi.sourceforge.net/DTD/sodipodi-0.dtd"
   xmlns="http://www.w3.org/2000/svg"
   xmlns:svg="http://www.w3.org/2000/svg">
  <sodipodi:namedview
     id="namedview6412"
     pagecolor="#ffffff"
     bordercolor="#666666"
     borderopacity="1.0"
     inkscape:pageshadow="2"
     inkscape:pageopacity="0.0"
     inkscape:pagecheckerboard="0"
     inkscape:document-units="mm"
     showgrid="false"
     inkscape:zoom="0.67081229"
     inkscape:cx="462.87166"
     inkscape:cy="207.95683"
     inkscape:window-width="1866"
     inkscape:window-height="1016"
     inkscape:window-x="54"
     inkscape:window-y="27"
     inkscape:window-maximized="1"
     inkscape:current-layer="layer1" />
  <defs
     id="defs6407" />
  <g
     inkscape:label="Capa 1"
     inkscape:groupmode="layer"
     id="layer1"
     transform="translate(17.450201,-93.382469)">
    <g
       id="g181849"
       transform="matrix(0.06631083,0,0,0.06631083,-13.3563,97.7801)"
       style="display:inline">
      <g
         id="g181839">
        <path
           d="m 178.406,0 h 30 v 30 h -30 z"
           id="path181831" />
        <path
           d="m 456.95,8.146 h 30 v 30 h -30 z"
           id="path181833" />
        <path
           d="m 31.649,86.201 h 30 V 71.007 h 15.195 v -30 H 61.649 V 25.813 h -30 V 41.007 H 16.455 v 30 h 15.194 z"
           id="path181835" />
        <path
           d="m 295.709,62.35 h 30 V 47.155 h 15.194 v -30 H 325.709 V 1.961 h -30 v 15.194 h -15.194 v 30 h 15.194 z"
           id="path181837" />
      </g>
      <g
         id="g181847">
        <path
           d="M 512,276.421 V 92.051 H 370.238 v 184.371 c 0,33.998 23.941,62.392 55.881,69.276 V 482 h -49.834 v 30 H 505.954 V 482 H 456.12 V 345.697 C 488.059,338.813 512,310.419 512,276.421 Z"
           id="path181841" />
        <ellipse
           cx="210.32201"
           cy="301.67801"
           rx="92.017998"
           ry="92.018997"
           transform="matrix(0.987,-0.16,0.16,0.987,-45.608,37.585)"
           id="ellipse181843" />
        <path
           d="m 396.119,366.69 c -12.707,-6.35 -24.065,-15.366 -33.147,-26.479 -14.66,-17.938 -22.734,-40.593 -22.734,-63.79 V 137.461 C 304.416,109.045 259.145,92.05 209.975,92.05 94.194,92.051 0,186.245 0,302.025 0,417.805 94.194,512 209.975,512 c 80.779,0 151.039,-45.859 186.144,-112.903 z m -185.797,57.006 c -67.281,0 -122.018,-54.737 -122.018,-122.019 0,-67.282 54.737,-122.019 122.018,-122.019 67.281,0 122.019,54.737 122.019,122.019 0,67.282 -54.737,122.019 -122.019,122.019 z"
           id="path181845" />
      </g>
    </g>
  </g>
</svg>
