<?xml version="1.0" encoding="UTF-8" standalone="no"?>
<!-- Created with Inkscape (http://www.inkscape.org/) -->

<svg
   width="42mm"
   height="42mm"
   viewBox="0 0 42 42"
   version="1.1"
   id="svg6984"
   inkscape:version="1.1 (ce6663b3b7, 2021-05-25)"
   sodipodi:docname="19_quitar_lavavajillas.svg"
   xmlns:inkscape="http://www.inkscape.org/namespaces/inkscape"
   xmlns:sodipodi="http://sodipodi.sourceforge.net/DTD/sodipodi-0.dtd"
   xmlns="http://www.w3.org/2000/svg"
   xmlns:svg="http://www.w3.org/2000/svg">
  <sodipodi:namedview
     id="namedview6986"
     pagecolor="#ffffff"
     bordercolor="#666666"
     borderopacity="1.0"
     inkscape:pageshadow="2"
     inkscape:pageopacity="0.0"
     inkscape:pagecheckerboard="0"
     inkscape:document-units="mm"
     showgrid="false"
     inkscape:zoom="0.67081229"
     inkscape:cx="-18.634125"
     inkscape:cy="283.98406"
     inkscape:window-width="1866"
     inkscape:window-height="1016"
     inkscape:window-x="54"
     inkscape:window-y="27"
     inkscape:window-maximized="1"
     inkscape:current-layer="layer1" />
  <defs
     id="defs6981" />
  <g
     inkscape:label="Capa 1"
     inkscape:groupmode="layer"
     id="layer1"
     transform="translate(-109.9482,-73.266937)">
    <g
       id="g6050"
       transform="matrix(0.06491883,0,0,0.06491883,114.32894,77.647717)"
       style="display:inline">
      <g
         id="g5959">
        <g
           id="g5957">
          <path
             d="M 496.979,391 H 15.021 C 1.755,391 -4.875,406.873 4.152,416.591 24.327,438.305 52.766,451 83.521,451 h 344.958 c 30.754,0 59.194,-12.695 79.369,-34.409 C 516.875,406.873 510.245,391 496.979,391 Z"
             id="path5955" />
        </g>
      </g>
      <g
         id="g5965">
        <g
           id="g5963">
          <path
             d="M 496.979,301 H 15.021 C 1.755,301 -4.875,316.873 4.152,326.591 24.327,348.305 52.766,361 83.521,361 h 344.958 c 30.754,0 59.194,-12.695 79.369,-34.409 C 516.875,316.873 510.245,301 496.979,301 Z"
             id="path5961" />
        </g>
      </g>
      <g
         id="g5971">
        <g
           id="g5969">
          <path
             d="m 122.903,482 c 21.978,19.01 50.261,30 80.618,30 h 105.85 c 30.357,0 58.64,-10.99 80.618,-30 z"
             id="path5967" />
        </g>
      </g>
      <g
         id="g5977">
        <g
           id="g5975">
          <path
             d="m 256.446,151 c -57.891,0 -105,47.109 -105,105 0,5.041 0.438,10.043 1.154,15 h 207.693 c 0.715,-4.957 1.153,-9.959 1.153,-15 0,-57.891 -47.109,-105 -105,-105 z"
             id="path5973" />
        </g>
      </g>
      <g
         id="g5983">
        <g
           id="g5981">
          <path
             d="M 256.446,0 C 115.835,0 0,114.391 0,255 c 0,5.028 0.646,9.994 0.938,15 h 121.497 c -0.558,-4.973 -0.989,-9.97 -0.989,-15 0,-74.443 60.557,-135 135,-135 74.443,0 135,60.557 135,135 0,5.03 -0.43,10.027 -0.989,15 h 120.606 c 0.291,-5.006 0.938,-9.972 0.938,-15 C 512,114.391 397.056,0 256.446,0 Z"
             id="path5979" />
        </g>
      </g>
      <g
         id="g5985" />
      <g
         id="g5987" />
      <g
         id="g5989" />
      <g
         id="g5991" />
      <g
         id="g5993" />
      <g
         id="g5995" />
      <g
         id="g5997" />
      <g
         id="g5999" />
      <g
         id="g6001" />
      <g
         id="g6003" />
      <g
         id="g6005" />
      <g
         id="g6007" />
      <g
         id="g6009" />
      <g
         id="g6011" />
      <g
         id="g6013" />
    </g>
  </g>
</svg>
