<?xml version="1.0" encoding="UTF-8" standalone="no"?>
<!-- Created with Inkscape (http://www.inkscape.org/) -->

<svg
   width="42mm"
   height="42mm"
   viewBox="0 0 42 42"
   version="1.1"
   id="svg19690"
   inkscape:version="1.1 (ce6663b3b7, 2021-05-25)"
   sodipodi:docname="20_poner_mesa.svg"
   xmlns:inkscape="http://www.inkscape.org/namespaces/inkscape"
   xmlns:sodipodi="http://sodipodi.sourceforge.net/DTD/sodipodi-0.dtd"
   xmlns="http://www.w3.org/2000/svg"
   xmlns:svg="http://www.w3.org/2000/svg">
  <sodipodi:namedview
     id="namedview19692"
     pagecolor="#ffffff"
     bordercolor="#666666"
     borderopacity="1.0"
     inkscape:pageshadow="2"
     inkscape:pageopacity="0.0"
     inkscape:pagecheckerboard="0"
     inkscape:document-units="mm"
     showgrid="false"
     inkscape:zoom="2.2778392"
     inkscape:cx="138.50846"
     inkscape:cy="115.67981"
     inkscape:window-width="1866"
     inkscape:window-height="1016"
     inkscape:window-x="54"
     inkscape:window-y="27"
     inkscape:window-maximized="1"
     inkscape:current-layer="layer1" />
  <defs
     id="defs19687" />
  <g
     inkscape:label="Capa 1"
     inkscape:groupmode="layer"
     id="layer1"
     transform="translate(-69.717125,-68.139442)">
    <g
       id="XMLID_218_"
       transform="matrix(0.07794308,0,0,0.07794308,70.994148,69.20196)"
       style="display:inline">
      <circle
         id="XMLID_219_"
         cx="239.455"
         cy="262.76099"
         transform="matrix(0.924,-0.383,0.383,0.924,-82.327,111.637)"
         r="96.194" />
      <path
         id="XMLID_275_"
         d="M 360.275,164 V 104 C 326.712,78.396 284.831,63.164 239.455,63.164 c -52.998,0 -101.232,20.769 -137.007,54.587 v 94.819 c 0,16.653 -6.723,31.761 -17.591,42.767 v 133.524 c 36.632,44.826 92.327,73.496 154.598,73.496 61.982,0 117.454,-28.4 154.092,-72.87 V 227.586 C 373.456,213.568 360.275,190.3 360.275,164 Z m -120.82,224.955 c -69.584,0 -126.194,-56.61 -126.194,-126.194 0,-69.584 56.61,-126.194 126.194,-126.194 69.583,0 126.193,56.61 126.193,126.194 0,69.584 -56.61,126.194 -126.193,126.194 z" />
      <path
         id="XMLID_279_"
         d="m 0,273.48 v 152.771 c 0,15.124 12.305,27.429 27.429,27.429 15.124,0 27.429,-12.305 27.429,-27.429 V 271.995 c -4.29,0.961 -8.744,1.485 -13.319,1.485 z" />
      <path
         id="XMLID_289_"
         d="M 11.448,49.319 H 0 V 243.48 h 41.538 c 17.044,0 30.91,-13.866 30.91,-30.91 V 110.319 c 0,-33.636 -27.364,-61 -61,-61 z" />
      <path
         id="XMLID_290_"
         d="m 437.775,241.5 c -4.862,0 -9.613,-0.471 -14.229,-1.332 v 186.083 c 0,15.124 12.305,27.429 27.43,27.429 15.124,0 27.429,-12.305 27.429,-27.429 V 240.168 c -4.616,0.86 -9.367,1.332 -14.229,1.332 z" />
      <path
         id="XMLID_301_"
         d="m 390.275,164 c 0,26.191 21.309,47.5 47.5,47.5 h 26.401 c 26.191,0 47.5,-21.309 47.5,-47.5 V 69.604 h -30 v 60.333 H 465.983 V 69.604 h -30 v 60.333 H 420.275 V 69.604 h -30 z" />
    </g>
  </g>
</svg>
