<?xml version="1.0" encoding="UTF-8" standalone="no"?>
<!-- Created with Inkscape (http://www.inkscape.org/) -->

<svg
   width="42mm"
   height="42mm"
   viewBox="0 0 42 42"
   version="1.1"
   id="svg117879"
   sodipodi:docname="1_barrer_aspiradora.svg"
   inkscape:version="1.1 (ce6663b3b7, 2021-05-25)"
   xmlns:inkscape="http://www.inkscape.org/namespaces/inkscape"
   xmlns:sodipodi="http://sodipodi.sourceforge.net/DTD/sodipodi-0.dtd"
   xmlns="http://www.w3.org/2000/svg"
   xmlns:svg="http://www.w3.org/2000/svg">
  <sodipodi:namedview
     id="namedview117881"
     pagecolor="#ffffff"
     bordercolor="#666666"
     borderopacity="1.0"
     inkscape:pageshadow="2"
     inkscape:pageopacity="0.0"
     inkscape:pagecheckerboard="0"
     inkscape:document-units="mm"
     showgrid="false"
     inkscape:zoom="0.67081229"
     inkscape:cx="313.79866"
     inkscape:cy="436.03852"
     inkscape:window-width="1866"
     inkscape:window-height="1016"
     inkscape:window-x="54"
     inkscape:window-y="27"
     inkscape:window-maximized="1"
     inkscape:current-layer="layer1" />
  <defs
     id="defs117876" />
  <g
     inkscape:label="Capa 1"
     inkscape:groupmode="layer"
     id="layer1"
     transform="translate(-21.992031,-33.035851)">
    <g
       id="g57078"
       transform="matrix(0.07898111,0,0,0.07898111,22.575159,33.618919)">
      <g
         id="g57022">
        <path
           d="M 459.439,32.653 C 419.726,9.732 364.981,8.766 316.595,30.138 c -44.772,19.785 -77.046,63.38 -96.123,96.142 -8.587,-2.094 -17.777,1.989 -21.764,10.299 -3.815,7.946 -1.587,17.165 4.762,22.673 -1.74,3.873 -2.802,6.474 -3.203,7.487 l -92.661,203.528 c -9.343,-4.304 -20.474,-0.469 -25.083,8.816 -4.695,9.457 -0.841,20.933 8.616,25.637 l 0.631,0.316 -20.845,45.814 h -51.8 C 8.568,450.85 0,459.418 0,469.975 0,480.532 8.568,489.1 19.125,489.1 h 95.625 c 10.557,0 19.125,-8.568 19.125,-19.125 0,-10.557 -8.568,-19.125 -19.125,-19.125 h -1.798 l 13.263,-29.137 c 1.75,0.507 3.519,0.851 5.288,0.851 7.028,0 13.799,-3.892 17.146,-10.614 4.38,-8.816 1.262,-19.307 -6.828,-24.509 l 96.018,-210.9 c 2.591,1.195 5.297,1.789 7.984,1.789 7.124,0 13.961,-3.997 17.251,-10.854 4.379,-9.113 0.822,-19.919 -7.842,-24.834 16.361,-27.569 42.554,-62.367 76.835,-77.514 36.854,-16.285 79.35,-16.036 108.257,0.65 21.258,12.269 33.469,31.786 36.318,58.025 5.336,49.142 0.812,82.094 -13.406,97.958 -1.311,1.463 -2.754,2.716 -4.227,3.901 v 42.811 c 11.781,-3.978 23.093,-10.47 32.694,-21.17 22.108,-24.624 29.614,-66.374 22.969,-127.622 -4.111,-37.953 -23.734,-68.859 -55.233,-87.028 z"
           id="path57016" />
        <path
           d="m 404.972,355.225 c 12.479,0 24.279,2.84 34.903,7.793 V 272.93 234.126 211.788 c 0,-10.566 1.004,-9.562 -9.562,-9.562 h -37.456 c -10.566,0 -117.141,8.769 -145.293,147.931 L 229.5,465.193 c 0,10.566 8.559,23.906 19.125,23.906 h 90.758 c -10.921,-14.066 -17.49,-31.661 -17.49,-50.796 0,-45.814 37.275,-83.078 83.079,-83.078 z"
           id="path57018" />
        <path
           d="m 449.438,392.441 c -2.936,-2.84 -6.13,-5.402 -9.562,-7.649 -10.05,-6.579 -22.032,-10.442 -34.903,-10.442 -35.267,0 -63.954,28.688 -63.954,63.954 0,20.712 9.945,39.11 25.265,50.796 5.336,4.073 11.312,7.315 17.767,9.562 6.569,2.285 13.589,3.586 20.923,3.586 7.335,0 14.354,-1.301 20.923,-3.586 6.771,-2.353 13.034,-5.805 18.561,-10.155 5.202,-4.093 9.783,-8.941 13.503,-14.43 6.923,-10.223 10.978,-22.539 10.978,-35.783 0,-12.526 -3.672,-24.184 -9.916,-34.052 -2.749,-4.304 -5.942,-8.271 -9.585,-11.801 z m -44.466,13.781 c 17.71,0 32.073,14.362 32.073,32.072 0,17.71 -14.363,32.073 -32.073,32.073 -17.71,0 -32.072,-14.363 -32.072,-32.073 0,-17.71 14.353,-32.072 32.072,-32.072 z"
           id="path57020" />
      </g>
      <g
         id="g57024" />
      <g
         id="g57026" />
      <g
         id="g57028" />
      <g
         id="g57030" />
      <g
         id="g57032" />
      <g
         id="g57034" />
      <g
         id="g57036" />
      <g
         id="g57038" />
      <g
         id="g57040" />
      <g
         id="g57042" />
      <g
         id="g57044" />
      <g
         id="g57046" />
      <g
         id="g57048" />
      <g
         id="g57050" />
      <g
         id="g57052" />
    </g>
  </g>
</svg>
