<?xml version="1.0" encoding="UTF-8" standalone="no"?>
<!-- Created with Inkscape (http://www.inkscape.org/) -->

<svg
   width="42mm"
   height="42mm"
   viewBox="0 0 42 42"
   version="1.1"
   id="svg28908"
   inkscape:version="1.1 (ce6663b3b7, 2021-05-25)"
   sodipodi:docname="21_basura.svg"
   xmlns:inkscape="http://www.inkscape.org/namespaces/inkscape"
   xmlns:sodipodi="http://sodipodi.sourceforge.net/DTD/sodipodi-0.dtd"
   xmlns="http://www.w3.org/2000/svg"
   xmlns:svg="http://www.w3.org/2000/svg">
  <sodipodi:namedview
     id="namedview28910"
     pagecolor="#ffffff"
     bordercolor="#666666"
     borderopacity="1.0"
     inkscape:pageshadow="2"
     inkscape:pageopacity="0.0"
     inkscape:pagecheckerboard="0"
     inkscape:document-units="mm"
     showgrid="false"
     inkscape:zoom="0.67081229"
     inkscape:cx="-88.698435"
     inkscape:cy="142.36471"
     inkscape:window-width="1866"
     inkscape:window-height="1016"
     inkscape:window-x="54"
     inkscape:window-y="27"
     inkscape:window-maximized="1"
     inkscape:current-layer="layer1" />
  <defs
     id="defs28905" />
  <g
     inkscape:label="Capa 1"
     inkscape:groupmode="layer"
     id="layer1"
     transform="translate(-128.48605,-110.73705)">
    <g
       id="g28752"
       transform="matrix(0.07600869,0,0,0.07600869,130.2572,111.8719)"
       style="display:inline">
      <path
         d="m 57.271,281.276 29.937,23.737 h 86.121 l 29.94,-23.74 c 15.914,-12.617 15.992,-36.707 0.21,-49.45 -42.188,-34.068 -103.287,-34.81 -146.422,0.004 -15.807,12.758 -15.67,36.855 0.214,49.449 z"
         id="path28744" />
      <path
         d="m 491.754,121.013 c 11.359,0 18.56,-12.116 13.204,-22.133 C 491.649,73.988 465.404,57.013 435.259,57.013 h -42.393 c -1.545,-14.198 -7.76,-27.454 -17.91,-37.896 -24.773,-25.486 -64.615,-25.492 -89.395,0 -10.15,10.442 -16.365,23.699 -17.91,37.896 h -41.393 c -30.145,0 -56.39,16.975 -69.699,41.867 -5.356,10.017 1.845,22.133 13.204,22.133 z m -161.495,-91 c 15.567,0 29.033,11.792 32.264,27 h -64.527 c 3.23,-15.208 16.696,-27 32.263,-27 z"
         id="path28746" />
      <path
         d="m 183.638,186.068 c 13.889,5.429 26.97,12.962 38.692,22.416 30.039,24.257 31.348,71.11 -0.71,96.53 l -2.65,2.1 c 22.076,18.374 37.889,43.126 45.27,70.94 l 18.51,69.71 c 5.953,22.4 1.383,45.761 -12.502,64.25 H 434.26 c 7.771,0 14.255,-5.935 14.941,-13.676 L 479.989,151.014 H 180.53 Z m 126.602,34.339 c 2.038,-8.029 10.196,-12.885 18.23,-10.847 33.353,8.471 56.765,34.839 63.571,65.63 5.793,-4.143 13.892,-3.688 19.173,1.457 5.934,5.781 6.059,15.277 0.277,21.211 l -23.684,24.312 c -6.422,6.592 -16.863,5.706 -22.426,-0.906 l -23.097,-22.5 c -5.934,-5.781 -6.059,-15.277 -0.278,-21.211 5.113,-5.247 13.125,-5.943 19.014,-2.04 -6.061,-17.684 -20.496,-31.94 -39.934,-36.876 -8.03,-2.039 -12.885,-10.201 -10.846,-18.23 z m -38.042,48.632 c 5.44,-5.581 14.325,-6.078 20.356,-1.031 0.852,0.714 -1.298,-1.345 25.168,24.437 5.934,5.781 6.059,15.277 0.278,21.211 -5.186,5.322 -13.353,5.955 -19.263,1.862 6.091,17.858 20.619,32.045 39.961,36.957 8.029,2.039 12.885,10.201 10.846,18.23 -2.038,8.029 -10.199,12.885 -18.23,10.847 -33.118,-8.411 -56.615,-34.554 -63.521,-65.405 -5.841,4.05 -13.809,3.472 -19,-1.584 -5.934,-5.781 -6.059,-15.277 -0.278,-21.211 z"
         id="path28748" />
      <path
         d="m 210.259,512.013 c 29.644,0 51.056,-28.062 43.5,-56.55 l -18.51,-69.71 c -5.28,-19.88 -15.91,-37.25 -30.08,-50.74 h -36.834 c 5.237,10.064 8.935,23.399 8.935,41 0,8.284 -6.716,15 -15,15 -8.284,0 -15,-6.716 -15,-15 0,-25.913 -10.757,-36.013 -16.927,-39.677 -5.627,3.995 -17.084,16.892 -17.084,55.677 0,8.284 -6.716,15 -15,15 -8.284,0 -15,-6.716 -15,-15 0,-23.253 3.62,-42.337 10.772,-57 H 55.373 c -14.172,13.486 -24.8,30.856 -30.08,50.739 l -18.51,69.712 c -7.585,28.557 13.92,56.549 43.492,56.549 z"
         id="path28750" />
    </g>
  </g>
</svg>
