<?xml version="1.0" encoding="UTF-8" standalone="no"?>
<!-- Created with Inkscape (http://www.inkscape.org/) -->

<svg
   width="42mm"
   height="42mm"
   viewBox="0 0 42 42"
   version="1.1"
   id="svg39230"
   inkscape:version="1.1 (ce6663b3b7, 2021-05-25)"
   sodipodi:docname="22_cama.svg"
   xmlns:inkscape="http://www.inkscape.org/namespaces/inkscape"
   xmlns:sodipodi="http://sodipodi.sourceforge.net/DTD/sodipodi-0.dtd"
   xmlns="http://www.w3.org/2000/svg"
   xmlns:svg="http://www.w3.org/2000/svg">
  <sodipodi:namedview
     id="namedview39232"
     pagecolor="#ffffff"
     bordercolor="#666666"
     borderopacity="1.0"
     inkscape:pageshadow="2"
     inkscape:pageopacity="0.0"
     inkscape:pagecheckerboard="0"
     inkscape:document-units="mm"
     showgrid="false"
     inkscape:zoom="0.67081229"
     inkscape:cx="103.60573"
     inkscape:cy="88.698435"
     inkscape:window-width="1866"
     inkscape:window-height="1016"
     inkscape:window-x="54"
     inkscape:window-y="27"
     inkscape:window-maximized="1"
     inkscape:current-layer="layer1" />
  <defs
     id="defs39227" />
  <g
     inkscape:label="Capa 1"
     inkscape:groupmode="layer"
     id="layer1"
     transform="translate(-77.605576,-124.93626)">
    <g
       id="g38998"
       transform="matrix(0.07806084,0,0,0.07806084,78.622001,125.95268)"
       style="display:inline">
      <g
         id="g38907">
        <g
           id="g38905">
          <path
             d="m 0,346 v 45 c 0,8.291 6.709,15 15,15 h 15 v 45 c 0,8.291 6.709,15 15,15 8.291,0 15,-6.709 15,-15 v -45 h 392 v 45 c 0,8.291 6.709,15 15,15 8.291,0 15,-6.709 15,-15 v -45 h 15 c 8.291,0 15,-6.709 15,-15 v -45 z"
             id="path38903" />
        </g>
      </g>
      <g
         id="g38913">
        <g
           id="g38911">
          <path
             d="m 377,136 h -91 c -8.276,0 -15,6.724 -15,15 v 45 h 121 v -45 c 0,-8.276 -6.724,-15 -15,-15 z"
             id="path38909" />
        </g>
      </g>
      <g
         id="g38919">
        <g
           id="g38917">
          <path
             d="m 226,136 h -91 c -8.276,0 -15,6.724 -15,15 v 45 h 121 v -45 c 0,-8.276 -6.724,-15 -15,-15 z"
             id="path38915" />
        </g>
      </g>
      <g
         id="g38925">
        <g
           id="g38923">
          <path
             d="M 407,46 H 105 C 63.647,46 30,79.647 30,121 v 75 h 60 v -45 c 0,-24.814 20.186,-45 45,-45 h 91 c 11.567,0 22.02,4.508 30,11.704 C 263.98,110.508 274.433,106 286,106 h 91 c 24.814,0 45,20.186 45,45 v 45 h 60 V 121 C 482,79.647 448.353,46 407,46 Z"
             id="path38921" />
        </g>
      </g>
      <g
         id="g38931">
        <g
           id="g38929">
          <path
             d="M 467,226 H 45 C 20.147,226 0,246.147 0,271 v 45 h 512 v -45 c 0,-24.853 -20.147,-45 -45,-45 z"
             id="path38927" />
        </g>
      </g>
      <g
         id="g38933" />
      <g
         id="g38935" />
      <g
         id="g38937" />
      <g
         id="g38939" />
      <g
         id="g38941" />
      <g
         id="g38943" />
      <g
         id="g38945" />
      <g
         id="g38947" />
      <g
         id="g38949" />
      <g
         id="g38951" />
      <g
         id="g38953" />
      <g
         id="g38955" />
      <g
         id="g38957" />
      <g
         id="g38959" />
      <g
         id="g38961" />
    </g>
  </g>
</svg>
