<?xml version="1.0" encoding="UTF-8" standalone="no"?>
<!-- Created with Inkscape (http://www.inkscape.org/) -->

<svg
   width="42mm"
   height="42mm"
   viewBox="0 0 42 42"
   version="1.1"
   id="svg35356"
   inkscape:version="1.1 (ce6663b3b7, 2021-05-25)"
   sodipodi:docname="23_compra.svg"
   xmlns:inkscape="http://www.inkscape.org/namespaces/inkscape"
   xmlns:sodipodi="http://sodipodi.sourceforge.net/DTD/sodipodi-0.dtd"
   xmlns="http://www.w3.org/2000/svg"
   xmlns:svg="http://www.w3.org/2000/svg">
  <sodipodi:namedview
     id="namedview35358"
     pagecolor="#ffffff"
     bordercolor="#666666"
     borderopacity="1.0"
     inkscape:pageshadow="2"
     inkscape:pageopacity="0.0"
     inkscape:pagecheckerboard="0"
     inkscape:document-units="mm"
     showgrid="false"
     inkscape:zoom="0.67081229"
     inkscape:cx="-152.79982"
     inkscape:cy="404.73319"
     inkscape:window-width="1866"
     inkscape:window-height="1016"
     inkscape:window-x="54"
     inkscape:window-y="27"
     inkscape:window-maximized="1"
     inkscape:current-layer="layer1" />
  <defs
     id="defs35353" />
  <g
     inkscape:label="Capa 1"
     inkscape:groupmode="layer"
     id="layer1"
     transform="translate(-145.44621,-41.318722)">
    <g
       id="g56869"
       transform="matrix(0.08011279,0,0,0.08011279,145.93746,41.809848)"
       style="display:inline">
      <g
         id="g56760">
        <g
           id="g56758">
          <path
             d="M 358.717,86.474 H 283.02 c -12.7,0 -23.032,10.332 -23.032,23.032 v 56.511 l 34.576,-17.231 c 4.295,-2.14 9.344,-2.139 13.638,0 l 38.55,19.212 34.997,-17.443 V 109.507 C 381.748,96.806 371.417,86.474 358.717,86.474 Z"
             id="path56756" />
        </g>
      </g>
      <g
         id="g56766">
        <g
           id="g56764">
          <path
             d="M 186.323,32.356 C 184.048,21.682 177.751,12.532 168.594,6.594 161.894,2.246 154.246,0 146.443,0 c -2.86,0 -5.738,0.302 -8.6,0.912 -22.036,4.697 -36.141,26.445 -31.445,48.481 l 21.29,99.878 37.581,18.727 38.552,-19.213 c 2.196,-1.095 4.591,-1.621 6.98,-1.596 z"
             id="path56762" />
        </g>
      </g>
      <g
         id="g56772">
        <g
           id="g56770">
          <path
             d="m 392.116,179.551 -38.544,19.212 c -4.295,2.141 -9.345,2.14 -13.639,0 l -38.55,-19.213 -38.551,19.213 c -4.294,2.14 -9.343,2.14 -13.638,0 l -38.553,-19.213 -38.552,19.213 c -4.294,2.14 -9.343,2.139 -13.637,0 l -38.559,-19.214 -30.089,14.994 v 293.441 c 0,13.243 10.773,24.016 24.016,24.016 h 284.357 c 13.243,0 24.016,-10.773 24.016,-24.016 V 194.542 Z m -54.53,217.635 c -22.046,9.919 -51.021,15.381 -81.586,15.381 -30.565,0 -59.54,-5.462 -81.586,-15.381 -25.93,-11.666 -40.212,-28.652 -40.212,-47.827 0,-19.175 14.281,-36.161 40.212,-47.827 22.046,-9.919 51.021,-15.381 81.586,-15.381 30.565,0 59.54,5.462 81.586,15.381 25.93,11.666 40.212,28.652 40.212,47.827 0,19.175 -14.281,36.161 -40.212,47.827 z"
             id="path56768" />
        </g>
      </g>
      <g
         id="g56778">
        <g
           id="g56776">
          <path
             d="M 358.719,86.476 H 283.02 c -12.7,0 -23.035,10.335 -23.035,23.035 v 56.507 l 34.583,-17.235 c 4.291,-2.14 9.336,-2.14 13.637,0 l 38.548,19.213 34.99,-17.439 v -41.045 c 0,-12.701 -10.324,-23.036 -23.024,-23.036 z"
             id="path56774" />
        </g>
      </g>
      <g
         id="g56784">
        <g
           id="g56782">
          <path
             d="M 186.325,32.355 C 184.052,21.684 177.753,12.531 168.59,6.589 161.894,2.247 154.249,0.005 146.442,0.005 c -2.854,0 -5.738,0.296 -8.602,0.907 -22.036,4.699 -36.142,26.449 -31.443,48.485 l 21.292,99.875 37.579,18.723 38.558,-19.213 c 2.191,-1.091 4.587,-1.621 6.972,-1.59 z"
             id="path56780" />
        </g>
      </g>
      <g
         id="g56790">
        <g
           id="g56788">
          <path
             d="m 325.041,329.419 c -17.923,-8.064 -43.088,-12.69 -69.04,-12.69 -25.952,0 -51.117,4.625 -69.04,12.69 -16.371,7.366 -22.18,15.346 -22.18,19.941 0,4.595 5.809,12.576 22.18,19.941 17.923,8.064 43.088,12.69 69.04,12.69 25.952,0 51.116,-4.625 69.04,-12.69 16.371,-7.366 22.18,-15.346 22.18,-19.941 0,-4.595 -5.809,-12.576 -22.18,-19.941 z"
             id="path56786" />
        </g>
      </g>
      <g
         id="g56796">
        <g
           id="g56794">
          <path
             d="m 331.979,25.319 h -22.23 c -8.418,0 -15.242,6.824 -15.242,15.242 v 0.095 c 0,8.418 6.824,15.242 15.242,15.242 h 22.23 c 8.418,0 15.242,-6.824 15.242,-15.242 v -0.095 c 0,-8.418 -6.824,-15.242 -15.242,-15.242 z"
             id="path56792" />
        </g>
      </g>
      <g
         id="g56798" />
      <g
         id="g56800" />
      <g
         id="g56802" />
      <g
         id="g56804" />
      <g
         id="g56806" />
      <g
         id="g56808" />
      <g
         id="g56810" />
      <g
         id="g56812" />
      <g
         id="g56814" />
      <g
         id="g56816" />
      <g
         id="g56818" />
      <g
         id="g56820" />
      <g
         id="g56822" />
      <g
         id="g56824" />
      <g
         id="g56826" />
    </g>
  </g>
</svg>
