<?xml version="1.0" encoding="UTF-8" standalone="no"?>
<!-- Created with Inkscape (http://www.inkscape.org/) -->

<svg
   width="42mm"
   height="42mm"
   viewBox="0 0 42 42"
   version="1.1"
   id="svg185999"
   inkscape:version="1.1 (ce6663b3b7, 2021-05-25)"
   sodipodi:docname="24_arreglos.svg"
   xmlns:inkscape="http://www.inkscape.org/namespaces/inkscape"
   xmlns:sodipodi="http://sodipodi.sourceforge.net/DTD/sodipodi-0.dtd"
   xmlns="http://www.w3.org/2000/svg"
   xmlns:svg="http://www.w3.org/2000/svg">
  <sodipodi:namedview
     id="namedview186001"
     pagecolor="#ffffff"
     bordercolor="#666666"
     borderopacity="1.0"
     inkscape:pageshadow="2"
     inkscape:pageopacity="0.0"
     inkscape:pagecheckerboard="0"
     inkscape:document-units="mm"
     showgrid="false"
     inkscape:zoom="0.67081229"
     inkscape:cx="263.11384"
     inkscape:cy="200.50318"
     inkscape:window-width="1866"
     inkscape:window-height="1016"
     inkscape:window-x="54"
     inkscape:window-y="27"
     inkscape:window-maximized="1"
     inkscape:current-layer="layer1" />
  <defs
     id="defs185996" />
  <g
     inkscape:label="Capa 1"
     inkscape:groupmode="layer"
     id="layer1"
     transform="translate(-35.402386,-95.354584)">
    <g
       id="g79678"
       transform="matrix(0.07799861,0,0,0.07799861,36.434664,96.386911)"
       style="display:inline">
      <path
         d="m 246.128,19.71 -241,210 c -6.24,5.464 -6.87,14.941 -1.421,21.167 5.464,6.24 14.927,6.841 21.167,1.421 l 5.127,-4.486 v 233.192 c 0,8.291 6.709,15 15,15 h 166 V 365.501 c -36.284,-17.271 -60,-53.994 -60,-94.497 0,-44.106 28.124,-83.73 69.976,-98.628 4.585,-1.626 9.697,-0.923 13.667,1.875 3.984,2.813 6.357,7.383 6.357,12.261 v 78.281 l 15,15 15,-15 v -78.281 c 0,-4.878 2.373,-9.448 6.357,-12.261 4.014,-2.783 9.141,-3.457 13.667,-1.875 41.85,14.897 69.976,54.521 69.976,98.628 0,40.503 -23.716,77.227 -60,94.497 v 130.503 h 166 c 8.291,0 15,-6.709 15,-15 V 247.812 l 5.127,4.486 c 6.194,5.427 15.685,4.845 21.167,-1.421 5.449,-6.226 4.819,-15.703 -1.421,-21.167 l -241,-210 c -5.655,-4.951 -14.092,-4.951 -19.746,0 z"
         id="path79672" />
      <path
         d="m 271.001,355.497 c 0,-6.343 3.999,-12.012 9.976,-14.136 29.927,-10.635 50.024,-38.921 50.024,-70.356 0,-23.76 -11.484,-45.703 -30,-59.604 v 59.604 c 0,3.984 -1.582,7.793 -4.395,10.605 l -30,30 c -5.859,5.859 -15.352,5.859 -21.211,0 l -30,-30 C 212.582,278.797 211,274.989 211,271.005 V 211.4 c -18.516,13.901 -30,35.845 -30,59.604 0,31.436 20.098,59.722 50.024,70.356 5.977,2.124 9.976,7.793 9.976,14.136 v 140.508 h 30 V 355.497 Z"
         id="path79674" />
      <path
         d="m 437.001,46.004 h -61 c -8.291,0 -15,6.709 -15,15 v 2.078 l 91,78.75 V 61.004 c 0,-8.291 -6.709,-15 -15,-15 z"
         id="path79676" />
    </g>
  </g>
</svg>
