<?xml version="1.0" encoding="UTF-8" standalone="no"?>
<!-- Created with Inkscape (http://www.inkscape.org/) -->

<svg
   width="42mm"
   height="42mm"
   viewBox="0 0 42 42"
   version="1.1"
   id="svg182988"
   inkscape:version="1.1 (ce6663b3b7, 2021-05-25)"
   sodipodi:docname="25_lavar_coche.svg"
   xmlns:inkscape="http://www.inkscape.org/namespaces/inkscape"
   xmlns:sodipodi="http://sodipodi.sourceforge.net/DTD/sodipodi-0.dtd"
   xmlns="http://www.w3.org/2000/svg"
   xmlns:svg="http://www.w3.org/2000/svg">
  <sodipodi:namedview
     id="namedview182990"
     pagecolor="#ffffff"
     bordercolor="#666666"
     borderopacity="1.0"
     inkscape:pageshadow="2"
     inkscape:pageopacity="0.0"
     inkscape:pagecheckerboard="0"
     inkscape:document-units="mm"
     showgrid="false"
     inkscape:zoom="0.67081229"
     inkscape:cx="413.67757"
     inkscape:cy="315.28939"
     inkscape:window-width="1866"
     inkscape:window-height="1016"
     inkscape:window-x="54"
     inkscape:window-y="27"
     inkscape:window-maximized="1"
     inkscape:current-layer="layer1" />
  <defs
     id="defs182985" />
  <g
     inkscape:label="Capa 1"
     inkscape:groupmode="layer"
     id="layer1"
     transform="translate(4.4342651,-64.984062)">
    <g
       id="g87256"
       transform="matrix(0.08070438,0,0,0.08070438,-4.0945864,65.323741)"
       style="display:inline">
      <path
         d="m 331,106 h 30 v 30 h -30 z"
         id="path87236" />
      <path
         d="m 271,136 h 30 v 30 h -30 z"
         id="path87238" />
      <path
         d="m 271,76 h 30 v 30 h -30 z"
         id="path87240" />
      <path
         d="m 211,46 h 30 v 30 h -30 z"
         id="path87242" />
      <path
         d="m 211,106 h 30 v 30 h -30 z"
         id="path87244" />
      <path
         d="m 211,166 h 30 v 30 h -30 z"
         id="path87246" />
      <path
         d="m 401.957,275.102 43.975,-8.789 C 483.637,258.769 512,225.385 512,186.947 512,142.313 474.687,106 430.053,106 H 391 v 30 h 39.053 c 28.095,0 51.947,22.852 51.947,50.947 0,24.199 -18.227,45.205 -41.957,49.951 l -43.975,8.789 C 358.363,253.231 331,286.615 331,325.053 331,369.687 367.313,406 411.947,406 H 512 V 376 H 411.947 C 383.852,376 361,353.148 361,325.053 c 0,-24.199 17.227,-45.205 40.957,-49.951 z"
         id="path87248" />
      <path
         d="m 136,466 c 33.137,0 60,-26.863 60,-60 0,-33.137 -26.863,-60 -60,-60 -33.137,0 -60,26.863 -60,60 0,33.137 26.863,60 60,60 z m -15,-75 h 30 v 30 h -30 z"
         id="path87250" />
      <path
         d="M 145.272,136 H 0 v 90 h 190.272 z"
         id="path87252" />
      <path
         d="m 136,316 c 49.629,0 90,40.371 90,90 h 75 v -60 h -60 v -30 h 60 c 0,-33.137 -26.863,-60 -60,-60 H 0 v 150 h 46 c 0,-49.629 40.371,-90 90,-90 z"
         id="path87254" />
    </g>
  </g>
</svg>
