<?xml version="1.0" encoding="UTF-8" standalone="no"?>
<!-- Created with Inkscape (http://www.inkscape.org/) -->

<svg
   width="42mm"
   height="42mm"
   viewBox="0 0 42 42"
   version="1.1"
   id="svg124315"
   inkscape:version="1.1 (ce6663b3b7, 2021-05-25)"
   sodipodi:docname="2_fregar.svg"
   xmlns:inkscape="http://www.inkscape.org/namespaces/inkscape"
   xmlns:sodipodi="http://sodipodi.sourceforge.net/DTD/sodipodi-0.dtd"
   xmlns="http://www.w3.org/2000/svg"
   xmlns:svg="http://www.w3.org/2000/svg">
  <sodipodi:namedview
     id="namedview124317"
     pagecolor="#ffffff"
     bordercolor="#666666"
     borderopacity="1.0"
     inkscape:pageshadow="2"
     inkscape:pageopacity="0.0"
     inkscape:pagecheckerboard="0"
     inkscape:document-units="mm"
     showgrid="false"
     inkscape:zoom="0.67081229"
     inkscape:cx="-91.679895"
     inkscape:cy="328.70596"
     inkscape:window-width="1866"
     inkscape:window-height="1016"
     inkscape:window-x="54"
     inkscape:window-y="27"
     inkscape:window-maximized="1"
     inkscape:current-layer="layer1" />
  <defs
     id="defs124312" />
  <g
     inkscape:label="Capa 1"
     inkscape:groupmode="layer"
     id="layer1"
     transform="translate(-129.2749,-61.434261)">
    <g
       id="g68008"
       transform="matrix(0.07535744,0,0,0.07535744,130.9834,63.142756)">
      <path
         d="m 18.24,173.836 c 7.606,2.54 21.004,8.195 33.763,20.954 12.759,12.759 18.414,26.156 20.954,33.763 1.829,5.556 7.149,10.29 14.246,10.293 7.097,-0.003 12.417,-4.737 14.246,-10.293 2.54,-7.606 8.195,-21.004 20.954,-33.763 12.759,-12.759 26.158,-18.414 33.763,-20.954 5.556,-1.829 10.29,-7.149 10.293,-14.246 -0.003,-7.097 -4.737,-12.417 -10.293,-14.246 -7.606,-2.54 -21.004,-8.195 -33.763,-20.954 C 109.644,111.631 103.989,98.234 101.449,90.627 99.62,85.071 94.3,80.337 87.203,80.334 c -7.097,0.003 -12.417,4.737 -14.246,10.293 -2.54,7.606 -8.195,21.004 -20.954,33.763 -12.759,12.759 -26.158,18.414 -33.763,20.954 -5.556,1.829 -10.29,7.149 -10.293,14.246 0.003,7.097 4.737,12.416 10.293,14.246 z"
         id="path67994" />
      <path
         d="m 249.119,159.6 c 0,8.284 6.716,15 15,15 h 17.134 v 17.133 c 0,8.284 6.716,15 15,15 8.284,0 15,-6.716 15,-15 V 174.6 h 17.133 c 8.284,0 15,-6.716 15,-15 0,-8.284 -6.716,-15 -15,-15 h -17.133 v -17.133 c 0,-8.284 -6.716,-15 -15,-15 -8.284,0 -15,6.716 -15,15 V 144.6 h -17.134 c -8.284,0 -15,6.716 -15,15 z"
         id="path67996" />
      <path
         d="m 183.786,62.133 h 17.133 v 17.133 c 0,8.284 6.716,15 15,15 8.284,0 15,-6.716 15,-15 V 62.133 h 17.134 c 8.284,0 15,-6.716 15,-15 0,-8.284 -6.716,-15 -15,-15 H 230.919 V 15 c 0,-8.284 -6.716,-15 -15,-15 -8.284,0 -15,6.716 -15,15 v 17.133 h -17.133 c -8.284,0 -15,6.716 -15,15 0,8.284 6.716,15 15,15 z"
         id="path67998" />
      <path
         d="m 259.437,452.244 c 0.533,-0.067 15.705,-2.051 29.916,-11.629 0.539,-0.364 1.044,-0.752 1.566,-1.128 L 318.19,303.133 h 10.196 c 8.284,0 15,-6.716 15,-15 0,-8.284 -6.716,-15 -15,-15 h -289.2 c -8.284,0 -15,6.716 -15,15 0,8.284 6.716,15 15,15 h 10.197 l 26.93,134.653 c 1.554,-0.98 3.017,-2.144 4.358,-3.484 l 92.51,-92.509 c 5.857,-5.858 15.355,-5.858 21.213,0 5.858,5.858 5.858,15.355 0,21.213 l -92.51,92.51 c -4.764,4.764 -11.474,9.441 -19.518,12.536 l 6.378,31.89 C 90.146,506.953 96.302,512 103.452,512 H 221.68 c -1.415,-4.015 -2.282,-8.296 -2.505,-12.758 -1.194,-23.908 16.477,-44.512 40.262,-46.998 z"
         id="path68000" />
      <path
         d="m 53.506,439.706 c -9.347,-3.871 -15.387,-12.911 -15.387,-23.041 0,-3.022 0.566,-5.956 1.637,-8.688 l -7.538,-37.689 -8.346,8.346 c -10.159,10.159 -15.754,23.665 -15.754,38.043 0,22.295 13.31,42.214 33.907,50.745 14.976,6.204 28.987,4.997 40.339,0.63 l -6.053,-30.266 c -6.743,4.255 -15.208,5.065 -22.805,1.92 z"
         id="path68002" />
      <path
         d="M 439.787,276.301 V 15 c 0,-8.284 -6.716,-15 -15,-15 -8.284,0 -15,6.716 -15,15 v 261.301 c 4.905,-0.677 9.911,-1.034 15,-1.034 5.088,0 10.094,0.357 15,1.034 z"
         id="path68004" />
      <path
         d="m 424.787,305.267 c -43.708,0 -79.267,35.559 -79.267,79.267 0,88.282 -80.784,97.315 -82.893,97.541 -7.954,0.795 -13.888,7.689 -13.489,15.673 0.399,7.984 6.987,14.252 14.981,14.252 h 112.467 c 112.958,0 127.467,-85.037 127.467,-127.467 0,-43.708 -35.558,-79.266 -79.266,-79.266 z"
         id="path68006" />
    </g>
  </g>
</svg>
