<?xml version="1.0" encoding="UTF-8" standalone="no"?>
<!-- Created with Inkscape (http://www.inkscape.org/) -->

<svg
   width="42mm"
   height="42mm"
   viewBox="0 0 42 42"
   version="1.1"
   id="svg133390"
   inkscape:version="1.1 (ce6663b3b7, 2021-05-25)"
   sodipodi:docname="4_comida.svg"
   xmlns:inkscape="http://www.inkscape.org/namespaces/inkscape"
   xmlns:sodipodi="http://sodipodi.sourceforge.net/DTD/sodipodi-0.dtd"
   xmlns="http://www.w3.org/2000/svg"
   xmlns:svg="http://www.w3.org/2000/svg">
  <sodipodi:namedview
     id="namedview133392"
     pagecolor="#ffffff"
     bordercolor="#666666"
     borderopacity="1.0"
     inkscape:pageshadow="2"
     inkscape:pageopacity="0.0"
     inkscape:pagecheckerboard="0"
     inkscape:document-units="mm"
     showgrid="false"
     inkscape:zoom="0.67081229"
     inkscape:cx="315.28939"
     inkscape:cy="304.85428"
     inkscape:window-width="1866"
     inkscape:window-height="1016"
     inkscape:window-x="54"
     inkscape:window-y="27"
     inkscape:window-maximized="1"
     inkscape:current-layer="layer1" />
  <defs
     id="defs133387" />
  <g
     inkscape:label="Capa 1"
     inkscape:groupmode="layer"
     id="layer1"
     transform="translate(-21.597607,-67.745018)">
    <g
       id="g87486"
       transform="matrix(0.07669796,0,0,0.07669796,22.962929,69.110376)">
      <path
         d="M 467,210 H 45 c -24.814,0 -45,20.186 -45,45 0,36.216 25.809,66.513 60,73.482 V 437 c 0,41.353 33.647,75 75,75 h 242 c 41.353,0 75,-33.647 75,-75 V 328.482 c 34.191,-6.969 60,-37.266 60,-73.482 0,-24.814 -20.186,-45 -45,-45 z M 30,255 c 0,-8.276 6.724,-15 15,-15 h 15 v 57.237 C 42.578,291.024 30,274.53 30,255 Z m 422,42.237 V 240 h 15 c 8.276,0 15,6.724 15,15 0,19.53 -12.578,36.024 -30,42.237 z"
         id="path87478" />
      <path
         d="m 62.377,171.27 c 3.488,7.604 12.488,10.787 19.893,7.354 L 410.281,28.634 C 417.81,25.177 421.106,16.256 417.635,8.741 414.178,1.212 405.257,-2.099 397.742,1.387 L 287.729,51.021 C 273.875,20.887 238.184,7.691 208.144,21.607 178.04,35.446 164.882,71.034 178.728,101.199 L 69.73,151.377 c -7.529,3.457 -10.825,12.363 -7.353,19.893 z"
         id="path87480" />
      <path
         d="m 416.858,80.142 c 0,-8.291 -6.709,-15 -15,-15 -2.813,0 -27.861,0.425 -42.451,15 -14.561,14.59 -14.985,39.624 -14.985,42.437 0,5.229 -1.816,16.816 -6.211,21.211 -4.16,4.16 -15.146,6.167 -21.211,6.211 -8.291,0 -15,6.709 -15,15 0,8.291 6.709,15 15,15 2.813,0 27.847,-0.425 42.422,-15 14.575,-14.575 15,-39.609 15,-42.422 0,-5.229 1.831,-16.831 6.211,-21.226 4.146,-4.146 15.117,-6.152 21.255,-6.211 8.276,-0.015 14.97,-6.724 14.97,-15 z"
         id="path87482" />
      <path
         d="m 407,180 c 2.813,0 27.847,-0.425 42.422,-15 14.575,-14.575 15,-39.609 15,-42.422 0,-5.229 1.831,-16.831 6.211,-21.226 4.146,-4.146 15.117,-6.152 21.255,-6.211 8.276,-0.015 14.971,-6.724 14.971,-15 0,-8.291 -6.709,-15 -15,-15 -2.813,0 -27.861,0.425 -42.451,15 -14.561,14.59 -14.985,39.624 -14.985,42.437 0,5.229 -1.816,16.816 -6.211,21.211 -4.16,4.16 -15.146,6.167 -21.211,6.211 -8.291,0 -15,6.709 -15,15 0,8.291 6.708,15 14.999,15 z"
         id="path87484" />
    </g>
  </g>
</svg>
