<?xml version="1.0" encoding="UTF-8" standalone="no"?>
<!-- Created with Inkscape (http://www.inkscape.org/) -->

<svg
   width="42mm"
   height="42mm"
   viewBox="0 0 42 42"
   version="1.1"
   id="svg138255"
   inkscape:version="1.1 (ce6663b3b7, 2021-05-25)"
   sodipodi:docname="5_merienda.svg"
   xmlns:inkscape="http://www.inkscape.org/namespaces/inkscape"
   xmlns:sodipodi="http://sodipodi.sourceforge.net/DTD/sodipodi-0.dtd"
   xmlns="http://www.w3.org/2000/svg"
   xmlns:svg="http://www.w3.org/2000/svg">
  <sodipodi:namedview
     id="namedview138257"
     pagecolor="#ffffff"
     bordercolor="#666666"
     borderopacity="1.0"
     inkscape:pageshadow="2"
     inkscape:pageopacity="0.0"
     inkscape:pagecheckerboard="0"
     inkscape:document-units="mm"
     showgrid="false"
     inkscape:zoom="0.67081229"
     inkscape:cx="556.78765"
     inkscape:cy="580.63933"
     inkscape:window-width="1866"
     inkscape:window-height="1016"
     inkscape:window-x="54"
     inkscape:window-y="27"
     inkscape:window-maximized="1"
     inkscape:current-layer="layer1" />
  <defs
     id="defs138252" />
  <g
     inkscape:label="Capa 1"
     inkscape:groupmode="layer"
     id="layer1"
     transform="translate(42.298805,5.2231112)">
    <g
       id="g87164"
       transform="matrix(0.06591759,0,0,0.06591759,-38.170313,-1.0946195)">
      <path
         d="m 466.777,286.129 h 45.12 v -30.24 h -124 c 21.09,29.69 33.53,66.13 33.53,105.47 0,21.14 -3.59,41.44 -10.19,60.3 h 100.66 v -30.24 h -45.12 c -8.28,0 -15,-6.72 -15,-15 0,-8.28 6.72,-15 15,-15 h 45.12 v -45.29 h -45.12 c -8.28,0 -15,-6.72 -15,-15 0,-8.29 6.72,-15 15,-15 z"
         id="path87156" />
      <path
         d="m 341.807,511.888 h 140.09 c 16.54,0 30,-13.46 30,-30 v -30.23 h -114.32 c -13.79,24.181 -32.94,44.82 -55.77,60.23 z"
         id="path87158" />
      <path
         d="m 248.428,90.242 h 3.181 c -2.571,21.209 -11.258,41.259 -25.002,57.666 l 0.93,0.93 c 8.5,8.5 13.18,19.8 13.18,31.82 v 0.2 c 1.06,-0.02 2.12,-0.03 3.18,-0.03 44.88,0 85.93,17.02 117.22,45.06 h 150.17 c -2.75,-25.6 -14.72,-49.26 -33.79,-66.16 -20.375,-18.047 -33.275,-42.845 -36.503,-69.486 h 3.198 c 24.878,0 45.117,-20.239 45.117,-45.117 0,-24.878 -20.239,-45.118 -45.117,-45.118 H 248.428 c -24.878,0 -45.118,20.24 -45.118,45.118 0,24.878 20.24,45.117 45.118,45.117 z"
         id="path87160" />
      <path
         d="m 391.428,361.358 c 0,-83.003 -66.183,-150.53 -147.532,-150.53 -11.269,0 -22.364,1.283 -33.174,3.821 v -33.994 c 0,-3.979 -1.58,-7.793 -4.394,-10.606 l -30.117,-30.118 c -5.856,-5.858 -15.354,-5.858 -21.213,0 -5.858,5.857 -5.858,15.354 0,21.213 l 25.724,25.725 v 27.785 c -10.818,-2.541 -21.923,-3.825 -33.204,-3.825 C 66.176,210.827 0,278.355 0,361.358 0,444.362 66.176,511.89 147.518,511.89 c 16.562,0 32.746,-2.762 48.196,-8.218 15.45,5.455 31.63,8.218 48.182,8.218 81.349,0 147.532,-67.528 147.532,-150.532 z"
         id="path87162" />
    </g>
  </g>
</svg>
