<?xml version="1.0" encoding="UTF-8" standalone="no"?>
<!-- Created with Inkscape (http://www.inkscape.org/) -->

<svg
   width="42mm"
   height="42mm"
   viewBox="0 0 42 42"
   version="1.1"
   id="svg151318"
   inkscape:version="1.1 (ce6663b3b7, 2021-05-25)"
   sodipodi:docname="6_cena.svg"
   xmlns:inkscape="http://www.inkscape.org/namespaces/inkscape"
   xmlns:sodipodi="http://sodipodi.sourceforge.net/DTD/sodipodi-0.dtd"
   xmlns="http://www.w3.org/2000/svg"
   xmlns:svg="http://www.w3.org/2000/svg">
  <sodipodi:namedview
     id="namedview151320"
     pagecolor="#ffffff"
     bordercolor="#666666"
     borderopacity="1.0"
     inkscape:pageshadow="2"
     inkscape:pageopacity="0.0"
     inkscape:pagecheckerboard="0"
     inkscape:document-units="mm"
     showgrid="false"
     inkscape:zoom="0.67081229"
     inkscape:cx="690.95335"
     inkscape:cy="282.49333"
     inkscape:window-width="1866"
     inkscape:window-height="1016"
     inkscape:window-x="54"
     inkscape:window-y="27"
     inkscape:window-maximized="1"
     inkscape:current-layer="layer1" />
  <defs
     id="defs151315" />
  <g
     inkscape:label="Capa 1"
     inkscape:groupmode="layer"
     id="layer1"
     transform="translate(77.796814,-73.661362)">
    <g
       id="g56743"
       transform="matrix(0.06666564,0,0,0.06666564,-73.799578,77.658524)">
      <path
         d="m 253.656,158.671 c 3.212,3.212 3.212,3.212 10.266,5.017 11.578,2.962 30.953,7.918 51.605,28.571 10.314,10.314 16.713,20.309 20.903,29.173 13.659,-11.942 30.96,-18.48 49.274,-18.48 20.033,0 38.868,7.801 53.033,21.967 14.166,14.165 21.967,32.999 21.967,53.032 0,20.033 -7.801,38.867 -21.967,53.033 -0.372,0.372 -0.756,0.732 -1.136,1.097 0.777,2.653 1.398,5.078 1.95,7.232 1.805,7.059 1.805,7.059 5.018,10.273 3.209,3.209 3.209,3.209 10.264,5.014 7.759,1.985 19.022,4.873 31.823,12.774 35.917,-52.56 30.545,-125.067 -16.094,-171.648 -22.325,-22.296 -51.902,-36.122 -83.285,-38.933 -15.327,-1.373 -29.591,-8.702 -40.163,-20.64 -1.849,-2.089 -3.825,-4.122 -5.874,-6.044 -28.898,-27.107 -71.698,-31.484 -105.095,-13.071 7.688,12.61 10.529,23.696 12.489,31.36 1.81,7.062 1.81,7.062 5.022,10.273 z"
         id="path56733" />
      <path
         d="m 353.887,246.132 c -2.175,2.174 -4.088,4.519 -5.743,7.018 0.288,0.296 0.605,0.614 0.969,0.978 3.212,3.212 3.212,3.212 10.266,5.017 11.581,2.963 30.954,7.919 51.605,28.57 5.022,5.021 9.108,9.966 12.471,14.742 4.715,-7.23 7.251,-15.671 7.251,-24.505 0,-12.02 -4.68,-23.32 -13.18,-31.819 -8.5,-8.499 -19.8,-13.18 -31.82,-13.18 -12.02,0 -23.321,4.68 -31.819,13.179 z"
         id="path56735" />
      <path
         d="m 0,133.007 365.147,365.146 h 63.64 L 0,69.367 Z"
         id="path56737" />
      <path
         d="M 0,498.153 H 322.721 L 0,175.432 Z m 135,-75 h 30 v 30 h -30 z m -60,-75 h 30 v 30 H 75 Z m -30,75 h 30 v 30 H 45 Z"
         id="path56739" />
      <path
         d="m 447.401,383.666 c -8.72,-2.23 -15.02,-3.842 -24.044,-12.866 -9.026,-9.026 -10.638,-15.326 -12.869,-24.047 -2.619,-10.241 -5.879,-22.986 -20.719,-37.825 -14.839,-14.839 -27.584,-18.099 -37.824,-20.719 -8.72,-2.23 -15.021,-3.842 -24.046,-12.868 -9.025,-9.025 -10.638,-15.325 -12.868,-24.045 -2.619,-10.24 -5.879,-22.985 -20.717,-37.823 -14.84,-14.84 -27.584,-18.1 -37.825,-20.72 -8.721,-2.23 -15.021,-3.842 -24.046,-12.867 -9.027,-9.026 -10.639,-15.327 -12.869,-24.048 -2.621,-10.241 -5.881,-22.986 -20.721,-37.825 -14.84,-14.84 -27.585,-18.101 -37.826,-20.721 -8.721,-2.231 -15.021,-3.844 -24.049,-12.87 -9.026,-9.026 -10.639,-15.328 -12.869,-24.049 -2.62,-10.241 -5.881,-22.986 -20.721,-37.826 L 92.783,11.94 38.891,65.831 l 403.018,403.018 53.933,-53.85 -10.615,-10.614 c -14.839,-14.839 -27.584,-18.1 -37.826,-20.719 z"
         id="path56741" />
    </g>
  </g>
</svg>
