<?xml version="1.0" encoding="UTF-8" standalone="no"?>
<!-- Created with Inkscape (http://www.inkscape.org/) -->

<svg
   width="42mm"
   height="42mm"
   viewBox="0 0 42 42"
   version="1.1"
   id="svg162200"
   inkscape:version="1.1 (ce6663b3b7, 2021-05-25)"
   sodipodi:docname="7_lavadora.svg"
   xmlns:inkscape="http://www.inkscape.org/namespaces/inkscape"
   xmlns:sodipodi="http://sodipodi.sourceforge.net/DTD/sodipodi-0.dtd"
   xmlns="http://www.w3.org/2000/svg"
   xmlns:svg="http://www.w3.org/2000/svg">
  <sodipodi:namedview
     id="namedview162202"
     pagecolor="#ffffff"
     bordercolor="#666666"
     borderopacity="1.0"
     inkscape:pageshadow="2"
     inkscape:pageopacity="0.0"
     inkscape:pagecheckerboard="0"
     inkscape:document-units="mm"
     showgrid="false"
     inkscape:zoom="0.67081229"
     inkscape:cx="377.90005"
     inkscape:cy="380.88151"
     inkscape:window-width="1866"
     inkscape:window-height="1016"
     inkscape:window-x="54"
     inkscape:window-y="27"
     inkscape:window-maximized="1"
     inkscape:current-layer="layer1" />
  <defs
     id="defs162197" />
  <g
     inkscape:label="Capa 1"
     inkscape:groupmode="layer"
     id="layer1"
     transform="translate(-5.0318766,-47.629478)">
    <g
       id="g68337"
       transform="matrix(0.0753256,0,0,0.0753256,6.748523,49.346124)">
      <g
         id="g68255">
        <g
           id="g68253">
          <path
             d="M 443.077,0 H 68.923 C 44.492,0 24.615,19.876 24.615,44.308 v 59.077 H 487.384 V 44.308 C 487.385,19.876 467.508,0 443.077,0 Z m -88.631,81.231 h -29.531 c -8.157,0 -14.769,-6.613 -14.769,-14.769 0,-8.156 6.613,-14.769 14.769,-14.769 h 29.531 c 8.157,0 14.769,6.613 14.769,14.769 0,8.156 -6.613,14.769 -14.769,14.769 z m 78.785,0 H 403.7 c -8.157,0 -14.769,-6.613 -14.769,-14.769 0,-8.156 6.613,-14.769 14.769,-14.769 h 29.531 c 8.157,0 14.769,6.613 14.769,14.769 0,8.156 -6.613,14.769 -14.769,14.769 z"
             id="path68251" />
        </g>
      </g>
      <g
         id="g68261">
        <g
           id="g68259">
          <path
             d="m 359.74,320.271 c -8.716,5.363 -19.561,12.037 -39.742,12.037 -20.181,0 -31.027,-6.674 -39.741,-12.037 -7.222,-4.446 -12.441,-7.655 -24.261,-7.655 -11.82,0 -17.038,3.211 -24.26,7.655 -8.715,5.362 -19.559,12.037 -39.739,12.037 -20.18,0 -31.025,-6.674 -39.739,-12.038 -3.223,-1.983 -6.047,-3.715 -9.231,-5.03 3.897,58.93 53.074,105.684 112.973,105.684 59.899,0 109.076,-46.754 112.974,-105.684 -3.185,1.315 -6.01,3.047 -9.234,5.031 z"
             id="path68257" />
        </g>
      </g>
      <g
         id="g68267">
        <g
           id="g68265">
          <path
             d="m 256,194.462 c -54.648,0 -100.379,38.915 -110.936,90.488 9.981,2.365 16.818,6.56 22.674,10.164 7.222,4.445 12.44,7.655 24.259,7.655 11.819,0 17.037,-3.211 24.259,-7.654 8.715,-5.363 19.559,-12.038 39.74,-12.038 20.181,0 31.027,6.674 39.741,12.037 7.222,4.446 12.441,7.655 24.261,7.655 11.82,0 17.039,-3.211 24.261,-7.654 5.856,-3.605 12.695,-7.8 22.677,-10.164 C 356.379,233.376 310.648,194.462 256,194.462 Z"
             id="path68263" />
        </g>
      </g>
      <g
         id="g68273">
        <g
           id="g68271">
          <path
             d="m 24.615,132.923 v 334.769 c 0,24.431 19.876,44.308 44.308,44.308 h 374.154 c 24.431,0 44.308,-19.876 44.308,-44.308 V 132.923 Z M 256,450.462 c -78.723,0 -142.769,-64.046 -142.769,-142.769 0,-3.832 0.157,-7.629 0.454,-11.385 0.002,-0.018 0.003,-0.036 0.005,-0.054 5.847,-73.395 67.438,-131.33 142.31,-131.33 74.872,0 136.464,57.935 142.31,131.33 0.002,0.018 0.003,0.036 0.005,0.054 0.298,3.757 0.454,7.553 0.454,11.385 0,78.722 -64.046,142.769 -142.769,142.769 z"
             id="path68269" />
        </g>
      </g>
      <g
         id="g68275" />
      <g
         id="g68277" />
      <g
         id="g68279" />
      <g
         id="g68281" />
      <g
         id="g68283" />
      <g
         id="g68285" />
      <g
         id="g68287" />
      <g
         id="g68289" />
      <g
         id="g68291" />
      <g
         id="g68293" />
      <g
         id="g68295" />
      <g
         id="g68297" />
      <g
         id="g68299" />
      <g
         id="g68301" />
      <g
         id="g68303" />
    </g>
  </g>
</svg>
