<?xml version="1.0" encoding="UTF-8" standalone="no"?>
<!-- Created with Inkscape (http://www.inkscape.org/) -->

<svg
   width="42mm"
   height="42mm"
   viewBox="0 0 42 42"
   version="1.1"
   id="svg168027"
   inkscape:version="1.1 (ce6663b3b7, 2021-05-25)"
   sodipodi:docname="8_lavar_ropa.svg"
   xmlns:inkscape="http://www.inkscape.org/namespaces/inkscape"
   xmlns:sodipodi="http://sodipodi.sourceforge.net/DTD/sodipodi-0.dtd"
   xmlns="http://www.w3.org/2000/svg"
   xmlns:svg="http://www.w3.org/2000/svg">
  <sodipodi:namedview
     id="namedview168029"
     pagecolor="#ffffff"
     bordercolor="#666666"
     borderopacity="1.0"
     inkscape:pageshadow="2"
     inkscape:pageopacity="0.0"
     inkscape:pagecheckerboard="0"
     inkscape:document-units="mm"
     showgrid="false"
     inkscape:zoom="0.67081229"
     inkscape:cx="430.0756"
     inkscape:cy="93.170625"
     inkscape:window-width="1866"
     inkscape:window-height="1016"
     inkscape:window-x="54"
     inkscape:window-y="27"
     inkscape:window-maximized="1"
     inkscape:current-layer="layer1" />
  <defs
     id="defs168024" />
  <g
     inkscape:label="Capa 1"
     inkscape:groupmode="layer"
     id="layer1"
     transform="translate(8.7729044,-123.75299)">
    <g
       id="g57139"
       transform="matrix(0.06372986,0,0,0.06372986,-4.0878267,128.4381)">
      <g
         id="g57084">
        <g
           id="g57082">
          <path
             d="m 482.177,73.586 -8.823,53.716 c -29.414,-13.632 -63.34,-10.073 -90.216,11.431 -21.501,17.195 -49.3,17.195 -70.801,0 -32.661,-26.129 -77.512,-26.129 -110.174,0 -21.486,17.181 -50.285,17.21 -71.801,0 -27.445,-21.992 -61.903,-25.255 -91.606,-10.79 L 29.829,73.586 C 26.612,53.858 -2.966,58.985 0.243,78.448 c 5.797,35.288 45.144,274.86 51.073,310.958 6.503,35.664 37.524,61.558 73.774,61.558 h 261.828 c 36.25,0 67.271,-25.894 73.818,-61.822 12.188,-74.213 45.689,-278.183 51.028,-310.694 3.174,-19.254 -26.331,-24.864 -29.587,-4.862 z"
             id="path57080" />
        </g>
      </g>
      <g
         id="g57086" />
      <g
         id="g57088" />
      <g
         id="g57090" />
      <g
         id="g57092" />
      <g
         id="g57094" />
      <g
         id="g57096" />
      <g
         id="g57098" />
      <g
         id="g57100" />
      <g
         id="g57102" />
      <g
         id="g57104" />
      <g
         id="g57106" />
      <g
         id="g57108" />
      <g
         id="g57110" />
      <g
         id="g57112" />
      <g
         id="g57114" />
    </g>
  </g>
</svg>
