<?xml version="1.0" encoding="UTF-8" standalone="no"?>
<!-- Created with Inkscape (http://www.inkscape.org/) -->

<svg
   width="42mm"
   height="42mm"
   viewBox="0 0 42 42"
   version="1.1"
   id="svg174975"
   inkscape:version="1.1 (ce6663b3b7, 2021-05-25)"
   sodipodi:docname="9_tender.svg"
   xmlns:inkscape="http://www.inkscape.org/namespaces/inkscape"
   xmlns:sodipodi="http://sodipodi.sourceforge.net/DTD/sodipodi-0.dtd"
   xmlns="http://www.w3.org/2000/svg"
   xmlns:svg="http://www.w3.org/2000/svg">
  <sodipodi:namedview
     id="namedview174977"
     pagecolor="#ffffff"
     bordercolor="#666666"
     borderopacity="1.0"
     inkscape:pageshadow="2"
     inkscape:pageopacity="0.0"
     inkscape:pagecheckerboard="0"
     inkscape:document-units="mm"
     showgrid="false"
     inkscape:zoom="0.67081229"
     inkscape:cx="728.2216"
     inkscape:cy="351.06691"
     inkscape:window-width="1866"
     inkscape:window-height="1016"
     inkscape:window-x="54"
     inkscape:window-y="27"
     inkscape:window-maximized="1"
     inkscape:current-layer="layer1" />
  <defs
     id="defs174972" />
  <g
     inkscape:label="Capa 1"
     inkscape:groupmode="layer"
     id="layer1"
     transform="translate(87.657372,-55.517929)">
    <path
       d="m -73.31826,59.792908 c -0.61359,0 -1.11009,0.49651 -1.11009,1.1101 v 0.31845 c -5.90187,-1.22118 -9.40393,-3.43272 -9.45025,-3.46335 -0.51709,-0.33821 -1.2001,-0.20056 -1.53831,0.31112 -0.33932,0.50954 -0.20166,1.19795 0.30788,1.53719 0.21032,0.14024 4.09536,2.62715 10.6806,3.89495 v 3.36033 c -3.59901,0.87647 -6.66058,3.22404 -6.66058,7.28542 v 6.73756 c 0,0.61358 0.49651,1.11011 1.1101,1.11011 h 3.33029 v -5.55051 c 0,-0.61322 0.49703,-1.11008 1.11009,-1.11008 0.61308,0 1.1101,0.49686 1.1101,1.11008 v 17.90956 c 0,0.61359 0.49651,1.11011 1.1101,1.11011 h 13.32116 c 0.61359,0 1.11009,-0.49652 1.11009,-1.11011 v -17.90956 c 0,-0.61322 0.49703,-1.11008 1.11011,-1.11008 0.61306,0 1.11009,0.49686 1.11009,1.11008 v 5.55051 h 3.33029 c 0.61359,0 1.1101,-0.49653 1.1101,-1.11011 v -6.73756 c 0,-4.06138 -3.06157,-6.40895 -6.66059,-7.28542 v -3.36025 c 6.58525,-1.2678 10.47036,-3.75472 10.68062,-3.89496 0.51057,-0.34043 0.64829,-1.02876 0.30787,-1.53941 -0.34044,-0.51064 -1.02987,-0.64932 -1.53941,-0.30786 -0.0464,0.0307 -3.53063,2.24676 -9.44915,3.46676 v -0.3229 c 0,-0.61358 -0.4965,-1.11009 -1.11009,-1.11009 -0.61359,0 -1.1101,0.49651 -1.1101,1.11009 v 0.7175 c -1.69172,0.24281 -3.54631,0.3926 -5.55048,0.3926 -2.0024,0 -3.857,-0.15119 -5.55049,-0.39571 v -0.71439 c 1.5e-4,-0.61366 -0.49636,-1.11017 -1.10995,-1.11017 z m 6.66058,4.44039 c 1.99758,0 3.8459,-0.14365 5.55049,-0.37277 v 2.66275 c -0.37047,-0.0285 -0.7414,-0.0698 -1.1101,-0.0698 -0.61358,0 -1.1101,0.49652 -1.1101,1.11011 0,1.89604 -2.01963,4.07396 -3.33029,5.22522 -1.31065,-1.15134 -3.33029,-3.32918 -3.33029,-5.22522 0,-0.61359 -0.4965,-1.11011 -1.11009,-1.11011 -0.3687,0 -0.73962,0.0413 -1.1101,0.0698 v -2.66275 c 1.70452,0.22912 3.5529,0.37277 5.55048,0.37277 z"
       id="path68240"
       style="stroke-width:0.0740063" />
  </g>
</svg>
