<?xml version="1.0" encoding="UTF-8" standalone="no"?>
<!-- Created with Inkscape (http://www.inkscape.org/) -->

<svg
   width="42mm"
   height="42mm"
   viewBox="0 0 42 42"
   version="1.1"
   id="svg282062"
   inkscape:version="1.1 (ce6663b3b7, 2021-05-25)"
   sodipodi:docname="48_comida_mascotas.svg"
   xmlns:inkscape="http://www.inkscape.org/namespaces/inkscape"
   xmlns:sodipodi="http://sodipodi.sourceforge.net/DTD/sodipodi-0.dtd"
   xmlns="http://www.w3.org/2000/svg"
   xmlns:svg="http://www.w3.org/2000/svg">
  <sodipodi:namedview
     id="namedview282064"
     pagecolor="#ffffff"
     bordercolor="#666666"
     borderopacity="1.0"
     inkscape:pageshadow="2"
     inkscape:pageopacity="0.0"
     inkscape:pagecheckerboard="0"
     inkscape:document-units="mm"
     showgrid="false"
     inkscape:zoom="0.67081229"
     inkscape:cx="343.61326"
     inkscape:cy="49.939455"
     inkscape:window-width="1866"
     inkscape:window-height="1016"
     inkscape:window-x="54"
     inkscape:window-y="27"
     inkscape:window-maximized="1"
     inkscape:current-layer="layer1" />
  <defs
     id="defs282059" />
  <g
     inkscape:label="Capa 1"
     inkscape:groupmode="layer"
     id="layer1"
     transform="translate(-14.103585,-135.19124)">
    <g
       id="g256098"
       transform="matrix(0.0702327,0,0,0.0702327,17.124014,138.2117)"
       style="display:inline">
      <path
         d="m 0,404.076 v 19.59 c 0,16.655 13.55,30.205 30.205,30.205 h 451.59 c 16.655,0 30.205,-13.55 30.205,-30.205 v -19.59 c 0,-0.069 -0.007,-0.136 -0.008,-0.205 H 0.008 C 0.007,403.94 0,404.007 0,404.076 Z"
         id="path256090" />
      <path
         d="M 457,201.776 H 55 c -7.614,0 -14.063,5.61 -15.118,13.15 L 17.647,373.872 H 494.352 L 472.118,214.927 C 471.063,207.386 464.614,201.776 457,201.776 Z m -216,35.01 c 0,-8.284 6.716,-15 15,-15 8.284,0 15,6.716 15,15 v 6 c 0,8.284 -6.716,15 -15,15 -8.284,0 -15,-6.716 -15,-15 z m -47.528,26.774 -3,-5.196 c -4.143,-7.175 -1.684,-16.349 5.49,-20.49 7.174,-4.142 16.349,-1.685 20.49,5.49 l 3,5.196 c 4.143,7.175 1.684,16.349 -5.49,20.49 -2.362,1.364 -4.941,2.012 -7.486,2.012 -5.184,0 -10.226,-2.69 -13.004,-7.502 z m 91.473,84.586 c -9.241,5.066 -20.323,5.715 -28.945,5.715 -8.622,0 -19.704,-0.649 -28.945,-5.715 -10.829,-5.936 -16.793,-16.731 -16.793,-30.397 0,-11.842 4.391,-25.138 11.744,-35.566 8.92,-12.648 21.31,-19.902 33.994,-19.902 12.684,0 25.074,7.254 33.994,19.902 7.354,10.428 11.744,23.724 11.744,35.566 0,13.667 -5.964,24.462 -16.793,30.397 z m 33.583,-84.586 c -2.778,4.812 -7.82,7.502 -13.004,7.502 -2.545,0 -5.124,-0.648 -7.486,-2.012 -7.174,-4.142 -9.633,-13.315 -5.49,-20.49 l 3,-5.196 c 4.142,-7.175 13.315,-9.634 20.49,-5.49 7.174,4.142 9.633,13.315 5.49,20.49 z"
         id="path256092" />
      <path
         d="m 256,292.281 c -6.214,0 -15.738,13.66 -15.738,25.468 0,3.426 0.701,3.81 1.213,4.09 1.684,0.923 5.569,2.022 14.525,2.022 8.956,0 12.842,-1.1 14.525,-2.022 0.512,-0.281 1.213,-0.665 1.213,-4.09 0,-11.808 -9.524,-25.468 -15.738,-25.468 z"
         id="path256094" />
      <path
         d="m 374.067,107.606 c -9.489,-28.952 -36.839,-49.478 -68.255,-49.478 -19.598,0 -37.962,7.936 -51.275,21.518 -13.35,-11.317 -30.414,-17.729 -48.35,-17.729 -18.675,0 -36.557,6.922 -50.352,19.491 -10.068,9.173 -17.353,20.786 -21.229,33.594 -33.255,1.238 -60.79,25.201 -67.527,56.773 h 378.01 c -6.603,-34.43 -35.493,-61.039 -71.022,-64.169 z"
         id="path256096" />
    </g>
  </g>
</svg>
