<?xml version="1.0" encoding="UTF-8" standalone="no"?>
<!-- Created with Inkscape (http://www.inkscape.org/) -->

<svg
   width="42mm"
   height="42mm"
   viewBox="0 0 42 42"
   version="1.1"
   id="svg282298"
   inkscape:version="1.1 (ce6663b3b7, 2021-05-25)"
   sodipodi:docname="49_paseo_mascotas.svg"
   xmlns:inkscape="http://www.inkscape.org/namespaces/inkscape"
   xmlns:sodipodi="http://sodipodi.sourceforge.net/DTD/sodipodi-0.dtd"
   xmlns="http://www.w3.org/2000/svg"
   xmlns:svg="http://www.w3.org/2000/svg">
  <sodipodi:namedview
     id="namedview282300"
     pagecolor="#ffffff"
     bordercolor="#666666"
     borderopacity="1.0"
     inkscape:pageshadow="2"
     inkscape:pageopacity="0.0"
     inkscape:pagecheckerboard="0"
     inkscape:document-units="mm"
     showgrid="false"
     inkscape:zoom="0.67081229"
     inkscape:cx="510.57502"
     inkscape:cy="433.05706"
     inkscape:window-width="1866"
     inkscape:window-height="1016"
     inkscape:window-x="54"
     inkscape:window-y="27"
     inkscape:window-maximized="1"
     inkscape:current-layer="layer1" />
  <defs
     id="defs282295" />
  <g
     inkscape:label="Capa 1"
     inkscape:groupmode="layer"
     id="layer1"
     transform="translate(30.071711,-33.824699)">
    <g
       id="g68058"
       transform="matrix(0.07189077,0,0,0.07189077,-27.475748,36.420662)"
       style="display:inline">
      <path
         d="m 265,497 c 0,8.284 6.716,15 15,15 h 15 v -93.039 c -9.792,1.736 -19.826,3.084 -30,4.077 z"
         id="path68046" />
      <path
         d="m 155,512 h 15 c 8.284,0 15,-6.716 15,-15 v -73.962 c -10.174,-0.994 -20.208,-2.341 -30,-4.077 z"
         id="path68048" />
      <path
         d="M 286.661,213.079 C 275.039,223.662 259.617,230 242.881,230 H 145 c -27.261,0 -51.873,11.546 -69.214,30 H 65.656 C 46.544,260 30.461,244.951 30.009,225.844 29.544,206.161 45.421,190 65,190 c 35.569,0 64.557,-28.718 64.995,-64.185 0.103,-8.338 -6.232,-15.577 -14.567,-15.809 C 106.949,109.77 100,116.573 100,125 c 0,19.299 -15.701,35 -35,35 -35.841,0 -65,29.159 -65,65 0,33.095 24.868,60.473 56.896,64.477 C 52.453,300.457 50,312.446 50,325 v 172 c 0,8.284 6.716,15 15,15 h 60 V 400.588 c 0,-9.675 9.013,-16.781 18.438,-14.596 25.367,5.881 53.265,9.008 81.562,9.008 28.297,0 56.195,-3.127 81.562,-9.009 9.425,-2.185 18.438,4.921 18.438,14.596 V 512 h 60 c 8.284,0 15,-6.716 15,-15 V 382.321 c 0,-31.779 2.08,-63.564 6.178,-95.086 l -81.285,-46.449 c -13.858,-7.919 -26.648,-17.205 -38.232,-27.707 z"
         id="path68050" />
      <path
         d="m 497,150 h -39.703 l -1.157,-5.786 C 451.016,118.595 428.334,100 402.208,100 H 400 V 55 c 0,-5.077 -2.568,-9.811 -6.826,-12.577 -4.258,-2.766 -9.627,-3.191 -14.266,-1.13 -32.745,14.554 -56.012,44.309 -62.237,79.595 l -9.778,55.408 c -0.713,4.04 -1.794,7.931 -3.192,11.652 10.794,10.253 22.871,19.245 36.077,26.791 l 71.232,40.704 c 1.779,-10.188 3.764,-20.34 5.969,-30.443 H 452 c 33.084,0 60,-26.916 60,-60 0,-8.284 -6.716,-15 -15,-15 z"
         id="path68052" />
      <path
         d="m 407.558,288.023 c 2.348,1.342 4.905,1.979 7.429,1.979 5.207,0 10.269,-2.716 13.037,-7.561 4.11,-7.193 1.611,-16.355 -5.581,-20.466 l -11.433,-6.533 c -1.843,10.56 -3.449,21.161 -4.831,31.792 z"
         id="path68054" />
      <path
         d="M 303.7,187.948 C 286.12,171.25 271.95,151.202 261.888,128.563 227.177,50.464 149.524,0 64.059,0 H 15 C 6.716,0 0,6.716 0,15 0,23.284 6.716,30 15,30 h 49.059 c 73.622,0 140.513,43.471 170.414,110.747 12.37,27.832 30.084,52.294 52.188,72.332 7.474,-6.805 13.37,-15.368 17.039,-25.131 z"
         id="path68056" />
    </g>
  </g>
</svg>
