<?xml version="1.0" encoding="UTF-8" standalone="no"?>
<!-- Created with Inkscape (http://www.inkscape.org/) -->

<svg
   width="42mm"
   height="42mm"
   viewBox="0 0 42 42"
   version="1.1"
   id="svg282541"
   inkscape:version="1.1 (ce6663b3b7, 2021-05-25)"
   sodipodi:docname="50_baño_mascotas.svg"
   xmlns:inkscape="http://www.inkscape.org/namespaces/inkscape"
   xmlns:sodipodi="http://sodipodi.sourceforge.net/DTD/sodipodi-0.dtd"
   xmlns="http://www.w3.org/2000/svg"
   xmlns:svg="http://www.w3.org/2000/svg">
  <sodipodi:namedview
     id="namedview282543"
     pagecolor="#ffffff"
     bordercolor="#666666"
     borderopacity="1.0"
     inkscape:pageshadow="2"
     inkscape:pageopacity="0.0"
     inkscape:pagecheckerboard="0"
     inkscape:document-units="mm"
     showgrid="false"
     inkscape:zoom="0.67081229"
     inkscape:cx="440.51071"
     inkscape:cy="185.59588"
     inkscape:window-width="1866"
     inkscape:window-height="1016"
     inkscape:window-x="54"
     inkscape:window-y="27"
     inkscape:window-maximized="1"
     inkscape:current-layer="layer1" />
  <defs
     id="defs282538" />
  <g
     inkscape:label="Capa 1"
     inkscape:groupmode="layer"
     id="layer1"
     transform="translate(11.533861,-99.298805)">
    <path
       id="path82527"
       style="color:#000000;display:inline;fill:#000000;stroke-width:0.714251;-inkscape-stroke:none"
       d="m 11.31924,101.2495 v 5.3e-4 c -0.108267,-0.004 -0.218731,5.2e-4 -0.331761,0.0129 -0.363564,0.0393 -1.9090747,0.50517 -0.74414,2.70578 0.252862,0.47782 0.468577,0.98671 0.609256,1.5074 l 0.342106,1.94303 c 0.356658,1.71523 0.73361,4.30209 0.90588,5.13767 l 0.05376,0.30903 c -0.01852,0.30871 -0.04665,0.59603 -0.08477,0.8661 l 0.927074,-0.17726 c 0.01508,-0.004 0.02746,-0.009 0.04342,-0.0134 l 7.953533,-1.56889 c 0,0 -0.0079,-2.21829 0.209789,-2.29185 0.300698,-0.10426 0.602932,-0.21029 0.904345,-0.31316 0.879952,-0.30497 1.65272,-0.78084 2.302696,-1.45366 1.106381,-1.14278 1.751753,-2.88333 0.574648,-4.38681 -1.07995,-1.37922 -5.117597,0.48476 -5.627555,0.47904 -1.507808,-0.0186 -2.597309,-0.66005 -4.097946,-0.47078 -0.261408,0.0328 -0.52668,0.0658 -0.782399,0.12506 -0.152771,0.0357 -0.247121,2.7e-4 -0.336392,-0.1204 -0.306414,-0.41072 -0.612616,-0.81911 -0.927602,-1.22267 -0.494348,-0.63183 -1.135671,-1.04204 -1.893941,-1.06763 z m -8.3199023,0.17156 c -0.2736586,-0.003 -0.5525823,0.0481 -0.8216636,0.15865 -1.076325,0.44204 -1.5902781,1.67285 -1.1482387,2.74918 0.4420394,1.07632 1.6728546,1.59029 2.7491795,1.14826 1.0762986,-0.44205 1.5902782,-1.67289 1.1482388,-2.74919 -0.3315229,-0.80725 -1.1065404,-1.29832 -1.927516,-1.3069 z m -4.5728466,8.66769 c -0.2736586,-0.003 -0.5525823,0.0476 -0.8216636,0.15813 -1.076325,0.44203 -1.5902781,1.67287 -1.1482387,2.74919 0.4420394,1.07634 1.6729075,1.59081 2.74917954,1.14876 1.07632498,-0.44204 1.59030456,-1.67286 1.14823873,-2.74918 -0.33152291,-0.80724 -1.10651394,-1.29832 -1.92751597,-1.3069 z m 6.754098,0.40049 c -0.3526367,-0.004 -0.7115969,0.0617 -1.0583333,0.20412 -1.3866548,0.56973 -2.0491715,2.15572 -1.4794971,3.54242 0.5696479,1.38644 2.1553223,2.04874 3.5419241,1.4795 1.3868136,-0.56939 2.0493567,-2.15509 1.4799998,-3.5419 -0.4270904,-1.0403 -1.4261571,-1.67313 -2.4840935,-1.68414 z m 15.8708729,3.09852 -2.683563,0.52658 c -0.159279,0.015 -0.312367,0.0443 -0.460957,0.0915 l -5.186759,1.00924 c 0,-0.003 -0.0026,-0.005 -0.0026,-0.008 l -1.12657,0.27027 c -0.180128,0.32246 -0.37547,0.64969 -0.575151,0.97668 -0.44487,-0.31892 -0.988563,-0.50893 -1.5776844,-0.50901 -1.4940755,-1.7e-4 -2.7061052,1.207 -2.7145454,2.69906 -0.331523,-0.14432 -0.6974682,-0.22474 -1.0821194,-0.2248 -0.7669477,-8e-5 -1.4596533,0.31806 -1.9533658,0.82941 -0.3881438,-1.02441 -1.3778971,-1.75321 -2.5383331,-1.75338 -1.31778374,-1.5e-4 -2.9382243,1.1831 -2.6623698,2.74247 H 22.171205 c -0.216297,-2.28738 -0.74639,-4.43357 -1.119823,-6.65024 z m -22.6058416,7.9034 c 0,0.006 0,0.0121 0,0.0181 h -6.405827 c -1.3306425,0 -2.4091374,1.07891 -2.4091374,2.40812 0,1.32924 1.0784949,2.40864 2.4091374,2.40864 h 0.028945 c -0.340016,0.81426 -0.5281347,1.70539 -0.5281347,2.63963 v 3.50057 c 0,3.79409 3.087661,6.88278 6.8817595,6.88278 H 20.510415 c 3.79484,0 6.88176,-3.08796 6.88176,-6.88278 v -3.50057 c 0,-0.93494 -0.188172,-1.8261 -0.528135,-2.63963 h 0.02945 c 1.329214,0 2.408132,-2.13736 2.408132,-3.468 0,-1.3285 -1.078918,-1.34979 -2.408132,-1.34979 h -4.509294 l -0.0032,-0.0171 z"
       sodipodi:nodetypes="ccccccccccccccccccccccsssssssssssssscssscccccccscscscccccssscsssssscsssccc" />
  </g>
</svg>
