<?xml version="1.0" encoding="UTF-8" standalone="no"?>
<!-- Created with Inkscape (http://www.inkscape.org/) -->

<svg
   width="42.067642mm"
   height="42mm"
   viewBox="0 0 42.067642 42"
   version="1.1"
   id="svg283040"
   inkscape:version="1.1 (ce6663b3b7, 2021-05-25)"
   sodipodi:docname="51_veterinario_mascotas.svg"
   xmlns:inkscape="http://www.inkscape.org/namespaces/inkscape"
   xmlns:sodipodi="http://sodipodi.sourceforge.net/DTD/sodipodi-0.dtd"
   xmlns="http://www.w3.org/2000/svg"
   xmlns:svg="http://www.w3.org/2000/svg">
  <sodipodi:namedview
     id="namedview283042"
     pagecolor="#ffffff"
     bordercolor="#666666"
     borderopacity="1.0"
     inkscape:pageshadow="2"
     inkscape:pageopacity="0.0"
     inkscape:pagecheckerboard="0"
     inkscape:document-units="mm"
     showgrid="false"
     inkscape:zoom="0.67081229"
     inkscape:cx="283.98406"
     inkscape:cy="307.83574"
     inkscape:window-width="1866"
     inkscape:window-height="1016"
     inkscape:window-x="54"
     inkscape:window-y="27"
     inkscape:window-maximized="1"
     inkscape:current-layer="layer1" />
  <defs
     id="defs283037" />
  <g
     inkscape:label="Capa 1"
     inkscape:groupmode="layer"
     id="layer1"
     transform="translate(-29.846655,-66.956177)">
    <g
       id="g82660"
       transform="matrix(0.42425787,0,0,0.42425787,30.558986,67.634402)"
       style="display:inline">
      <g
         id="g82603">
        <g
           id="g82601">
          <path
             d="M 66.244,78.866 H 56.362 L 33.236,44.91 10.93,40.53 3.095,79.248 c -0.516,2.477 1.074,4.899 3.551,5.417 0.313,0.064 0.628,0.097 0.937,0.097 2.125,0 4.03,-1.484 4.48,-3.647 l 4.419,-21.22 7.885,15.697 -4.12,-0.005 c 0,0 -0.002,0 -0.004,0 -2.527,0 -4.578,2.047 -4.581,4.575 -0.001,2.528 2.049,4.632 4.575,4.637 l 46.007,0.035 c 1.65,0 2.984,-1.335 2.984,-2.986 0.001,-1.648 -1.333,-2.982 -2.984,-2.982 z"
             id="path82595" />
          <path
             d="m 10.563,31.167 c 0.522,0.177 0.504,5.492 0.504,5.492 l 20.869,3.896 3.432,-19.46 c 0.335,-1.249 0.851,-2.467 1.458,-3.613 2.791,-5.271 -0.914,-6.388 -1.785,-6.483 -2.167,-0.238 -3.978,0.798 -5.331,2.526 -0.757,0.965 -1.49,1.945 -2.225,2.931 -0.213,0.288 -0.438,0.372 -0.806,0.287 C 26.068,16.6 25.431,16.52 24.804,16.442 21.208,15.99 18.598,17.525 14.985,17.571 13.763,17.585 4.087,13.12 1.503,16.425 c -2.822,3.603 -1.273,7.772 1.377,10.51 1.556,1.611 3.408,2.751 5.519,3.483 0.719,0.246 1.442,0.501 2.164,0.749 z"
             id="path82597" />
          <path
             d="m 88.502,38.677 h -10.09 c -0.734,-4.04 -4.271,-7.115 -8.519,-7.115 h -8.939 c -4.248,0 -7.784,3.075 -8.519,7.115 h -10.09 c -3.069,0 -5.691,1.898 -6.77,4.582 L 57.94,76.097 h 8.56 c 3.024,0 5.484,2.459 5.484,5.48 0,1.22 -0.404,2.343 -1.079,3.255 h 17.596 c 4.029,0 7.297,-3.269 7.297,-7.297 v -31.56 c 0,-4.03 -3.267,-7.298 -7.296,-7.298 z M 60.954,35.211 h 8.939 c 2.225,0 4.113,1.457 4.77,3.466 H 56.185 c 0.654,-2.008 2.544,-3.466 4.769,-3.466 z m 17.605,30.832 h -8.758 v 8.755 h -8.756 v -8.756 h -8.756 v -8.759 h 8.757 v -8.756 h 8.756 v 8.758 h 8.758 z"
             id="path82599" />
        </g>
      </g>
      <g
         id="g82605" />
      <g
         id="g82607" />
      <g
         id="g82609" />
      <g
         id="g82611" />
      <g
         id="g82613" />
      <g
         id="g82615" />
      <g
         id="g82617" />
      <g
         id="g82619" />
      <g
         id="g82621" />
      <g
         id="g82623" />
      <g
         id="g82625" />
      <g
         id="g82627" />
      <g
         id="g82629" />
      <g
         id="g82631" />
      <g
         id="g82633" />
    </g>
  </g>
</svg>
