<?xml version="1.0" encoding="UTF-8" standalone="no"?>
<!-- Created with Inkscape (http://www.inkscape.org/) -->

<svg
   width="42mm"
   height="42mm"
   viewBox="0 0 42 42"
   version="1.1"
   id="svg242248"
   inkscape:version="1.1 (ce6663b3b7, 2021-05-25)"
   sodipodi:docname="44_bañar.svg"
   xmlns:inkscape="http://www.inkscape.org/namespaces/inkscape"
   xmlns:sodipodi="http://sodipodi.sourceforge.net/DTD/sodipodi-0.dtd"
   xmlns="http://www.w3.org/2000/svg"
   xmlns:svg="http://www.w3.org/2000/svg">
  <sodipodi:namedview
     id="namedview242250"
     pagecolor="#ffffff"
     bordercolor="#666666"
     borderopacity="1.0"
     inkscape:pageshadow="2"
     inkscape:pageopacity="0.0"
     inkscape:pagecheckerboard="0"
     inkscape:document-units="mm"
     showgrid="false"
     inkscape:zoom="0.67081229"
     inkscape:cx="431.56633"
     inkscape:cy="67.828215"
     inkscape:window-width="1866"
     inkscape:window-height="1016"
     inkscape:window-x="54"
     inkscape:window-y="27"
     inkscape:window-maximized="1"
     inkscape:current-layer="layer1" />
  <defs
     id="defs242245" />
  <g
     inkscape:label="Capa 1"
     inkscape:groupmode="layer"
     id="layer1"
     transform="translate(9.1673346,-130.45818)">
    <g
       id="g241956"
       transform="matrix(0.07864498,0,0,0.07864498,-8.3004495,131.32507)"
       style="display:inline">
      <path
         d="m 211.021,242 h -0.02 l -0.04,-61 h -89.899 v 61 89 h 89.999 z"
         id="path241948" />
      <path
         d="M 241.074,345.99 C 241.08,354.273 234.36,361 226.073,361 H 106.061 C 97.776,361 91.06,354.284 91.06,346 V 272 H 32.335 l 9.186,110.228 c 2.788,33.455 27.352,60.66 59.747,67.249 V 466 c 0,8.284 6.716,15 15.001,15 8.285,0 15.001,-6.716 15.001,-15 v -15 h 249.508 v 15 c 0,8.284 6.716,15 15.001,15 8.285,0 15.001,-6.716 15.001,-15 v -16.524 c 32.377,-6.585 56.957,-33.775 59.747,-67.248 L 479.716,272 H 241.024 Z"
         id="path241950" />
      <path
         d="M 476.997,181 H 361.085 v -30 h 14.901 c 8.285,0 15.001,-6.716 15.001,-15 0,-8.284 -6.716,-15 -15.001,-15 H 361.085 V 91.05 C 361.085,57.939 334.144,31 301.029,31 267.914,31 240.973,57.938 240.973,91.05 V 106 c 0,8.284 6.716,15 15.001,15 8.285,0 15.001,-6.716 15.001,-15 V 91.05 c 0,-16.569 13.482,-30.05 30.053,-30.05 16.571,0 30.053,13.48 30.053,30.05 V 181 h -90.119 l 0.041,61 H 512 v -26 c 0,-19.299 -15.702,-35 -35.003,-35 z"
         id="path241952" />
      <path
         d="M 91.059,181 H 35.003 C 15.702,181 0,196.701 0,216 v 26 h 91.059 z"
         id="path241954" />
    </g>
  </g>
</svg>
