<?xml version="1.0" encoding="UTF-8" standalone="no"?>
<!-- Created with Inkscape (http://www.inkscape.org/) -->

<svg
   width="42mm"
   height="42mm"
   viewBox="0 0 42 42"
   version="1.1"
   id="svg254924"
   inkscape:version="1.1 (ce6663b3b7, 2021-05-25)"
   sodipodi:docname="45_alimentar.svg"
   xmlns:inkscape="http://www.inkscape.org/namespaces/inkscape"
   xmlns:sodipodi="http://sodipodi.sourceforge.net/DTD/sodipodi-0.dtd"
   xmlns="http://www.w3.org/2000/svg"
   xmlns:svg="http://www.w3.org/2000/svg">
  <sodipodi:namedview
     id="namedview254926"
     pagecolor="#ffffff"
     bordercolor="#666666"
     borderopacity="1.0"
     inkscape:pageshadow="2"
     inkscape:pageopacity="0.0"
     inkscape:pagecheckerboard="0"
     inkscape:document-units="mm"
     showgrid="false"
     inkscape:zoom="0.67081229"
     inkscape:cx="577.65787"
     inkscape:cy="458.39947"
     inkscape:window-width="1866"
     inkscape:window-height="1016"
     inkscape:window-x="54"
     inkscape:window-y="27"
     inkscape:window-maximized="1"
     inkscape:current-layer="layer1" />
  <defs
     id="defs254921" />
  <g
     inkscape:label="Capa 1"
     inkscape:groupmode="layer"
     id="layer1"
     transform="translate(47.820713,-27.119518)">
    <g
       id="g254765"
       transform="matrix(0.08036394,0,0,0.08036394,-47.393882,27.546378)"
       style="display:inline">
      <path
         d="m 361.67,225.383 -13.86,62.13 c -25.47,-0.576 -36.61,-0.84 -37.49,-0.84 -22.74,0 -42.3,17.48 -44.74,40.21 l -7.41,69.13 c 12.15,2.73 23.18,8.35 32.31,16.32 4.978,-62.172 55.688,-108.483 115.333,-110.658 l 9.301,-41.03 c 4.678,-20.637 22.725,-35.051 43.887,-35.051 h 19.852 c -4.09,-18.553 -16.549,-33.986 -33.878,-41.838 33.325,-27.464 20.912,-82.055 -21.914,-91.613 -28.212,-6.299 -56.283,11.547 -62.583,39.774 -5.251,23.524 6.148,46.396 25.561,57.219 -12.434,8.615 -21.057,21.396 -24.369,36.247 z"
         id="path254755" />
      <path
         d="m 497,285.593 c 8.284,0 15,-6.716 15,-15 0,-8.284 -6.716,-15 -15,-15 h -38 c -7.007,0 -13.08,4.851 -14.629,11.684 l -15.053,66.402 C 359.157,318.314 300.567,387.717 326.138,453.992 H 283.53 c -4.757,-14.004 -16.479,-25.259 -31.986,-28.72 -23.604,-5.269 -47.092,9.661 -52.363,33.277 v 0.001 c -5.271,23.617 9.643,47.116 33.244,52.383 21.786,4.862 43.425,-7.395 50.802,-27.941 h 61.044 c 48.432,52.054 137.611,29.695 153.569,-41.81 8.567,-38.384 -8.708,-76.498 -40.344,-96.106 l 13.485,-59.484 H 497 Z M 255.508,471.122 c -1.677,7.511 -9.098,12.196 -16.548,10.532 -7.457,-1.665 -12.167,-9.098 -10.5,-16.57 1.669,-7.472 9.096,-12.197 16.549,-10.533 7.468,1.668 12.172,9.074 10.499,16.571 z m 169.205,-46.261 c -1.805,8.085 -9.822,13.177 -17.907,11.372 -8.085,-1.805 -13.177,-9.822 -11.372,-17.907 1.804,-8.085 9.822,-13.177 17.907,-11.372 8.085,1.804 13.177,9.822 11.372,17.907 z"
         id="path254757" />
      <path
         d="m 267.895,114.36 c 29.975,-13.999 42.973,-49.774 28.974,-79.749 -14,-29.974 -49.772,-42.974 -79.75,-28.974 0,0 0,0 -0.001,0 -29.975,13.999 -42.973,49.774 -28.974,79.749 14.045,30.073 49.867,42.93 79.751,28.974 z"
         id="path254759" />
      <path
         d="m 66.022,497.815 c 0.437,7.953 7.013,14.178 14.978,14.178 h 50 c 7.968,0 14.545,-6.229 14.978,-14.185 l 2.547,-46.815 h -85.07 z"
         id="path254761" />
      <path
         d="m 147.478,170.263 46.814,36.729 h 77.091 c 8.104,0 15.305,-3.938 19.793,-10 H 325 c 8.284,0 15,-6.716 15,-15 0,-8.284 -6.716,-15 -15,-15 h -34.424 c -3.569,-4.453 -8.663,-7.675 -14.601,-8.802 -51.646,-9.914 -50.172,-9.27 -52.755,-10.324 C 176.425,137.492 145.856,92.444 153.723,45.385 67.982,51.202 0,122.802 0,209.993 v 196 c 0,8.284 6.716,15 15,15 h 151 c 8.284,0 15,-6.716 15,-15 V 237.735 L 127.418,195.89 c -6.306,-4.925 -8.096,-13.703 -4.222,-20.704 4.852,-8.767 16.398,-11.108 24.282,-4.923 z"
         id="path254763" />
    </g>
  </g>
</svg>
