<?xml version="1.0" encoding="UTF-8" standalone="no"?>
<!-- Created with Inkscape (http://www.inkscape.org/) -->

<svg
   width="42mm"
   height="42mm"
   viewBox="0 0 42 42"
   version="1.1"
   id="svg254241"
   inkscape:version="1.1 (ce6663b3b7, 2021-05-25)"
   sodipodi:docname="47_cuidar.svg"
   xmlns:inkscape="http://www.inkscape.org/namespaces/inkscape"
   xmlns:sodipodi="http://sodipodi.sourceforge.net/DTD/sodipodi-0.dtd"
   xmlns="http://www.w3.org/2000/svg"
   xmlns:svg="http://www.w3.org/2000/svg">
  <sodipodi:namedview
     id="namedview254243"
     pagecolor="#ffffff"
     bordercolor="#666666"
     borderopacity="1.0"
     inkscape:pageshadow="2"
     inkscape:pageopacity="0.0"
     inkscape:pagecheckerboard="0"
     inkscape:document-units="mm"
     showgrid="false"
     inkscape:zoom="0.67081229"
     inkscape:cx="21.615585"
     inkscape:cy="76.772595"
     inkscape:window-width="1866"
     inkscape:window-height="1016"
     inkscape:window-x="54"
     inkscape:window-y="27"
     inkscape:window-maximized="1"
     inkscape:current-layer="layer1" />
  <defs
     id="defs254238" />
  <g
     inkscape:label="Capa 1"
     inkscape:groupmode="layer"
     id="layer1"
     transform="translate(-99.298805,-128.09164)">
    <g
       id="g246894"
       transform="matrix(0.06960421,0,0,0.06960421,282.78853,54.870415)"
       style="display:inline">
      <path
         id="path246890"
         style="stroke-width:1.03187"
         d="m -2334.4851,1089.515 c -85.3407,0 -154.7736,70.4673 -154.7736,155.8079 0,85.3407 69.4329,154.7814 154.7736,154.7814 85.3406,0 154.7813,-69.4407 154.7813,-154.7814 0,-69.3487 -46.1508,-128.5346 -109.1298,-148.1546 -17.3422,-5.536 -24.7966,-7.0181 -45.6515,-7.6533 z m -62.8119,92.9424 a 18.407208,18.407208 0 0 1 18.4091,18.4091 18.407208,18.407208 0 0 1 -18.4091,18.4015 18.407208,18.407208 0 0 1 -18.4016,-18.4015 18.407208,18.407208 0 0 1 18.4016,-18.4091 z m 117.7178,0 a 18.407208,18.407208 0 0 1 18.4015,18.4091 18.407208,18.407208 0 0 1 -18.4015,18.4015 18.407208,18.407208 0 0 1 -18.4093,-18.4015 18.407208,18.407208 0 0 1 18.4093,-18.4091 z m -303.5795,78.3483 c -8.548,0 -15.4827,6.925 -15.4827,15.475 v 148.9743 c 0.453,14.4204 1.5695,25.2744 4.0449,38.5421 4.1203,22.0892 13.0469,50.8603 27.9471,113.8951 v 24.6605 c 0,8.5551 6.9198,15.475 15.4751,15.475 h 92.8657 c 8.5551,0 15.4827,-6.9199 15.4827,-15.475 v -38.0978 l 56.7138,-85.0669 c 9.4623,-14.2233 5.6054,-33.4764 -8.5879,-42.9242 -13.695,-9.1599 -33.7564,-5.1599 -42.9318,8.5649 l -33.777,50.6847 -64.2905,-103.4684 v -84.8065 c 0,-25.645 -21.8144,-46.4328 -47.4594,-46.4328 z m 497.3549,0 c -25.645,0 -47.4672,20.7878 -47.4672,46.4328 v 84.8065 l -64.2828,103.4684 -33.7846,-50.6847 c -9.1753,-13.7248 -29.2292,-17.7248 -42.9241,-8.5649 -14.1935,9.4468 -18.0502,28.6999 -8.588,42.9242 l 56.7139,85.0669 v 38.0978 c 0,8.5551 6.9274,15.475 15.4826,15.475 h 92.8658 c 8.5552,0 15.4751,-6.9199 15.4751,-15.475 l 1.0342,-24.6605 c 14.9001,-63.0348 22.7926,-91.8059 26.9128,-113.8951 2.4755,-13.2677 3.5909,-24.1217 4.045,-38.5421 v -148.9743 c 0,-8.549 -6.9347,-15.475 -15.4827,-15.475 z m -183.5635,25.6411 a 12.601074,12.601074 0 0 1 7.4081,2.4591 12.601074,12.601074 0 0 1 2.6661,17.6048 c -16.3924,22.246 -45.0981,32.9545 -73.4912,33.5548 -28.3931,0.6 -58.1447,-9.3618 -74.6711,-34.0221 a 12.601074,12.601074 0 0 1 3.4474,-17.4592 12.601074,12.601074 0 0 1 17.4899,3.4474 c 10.299,15.3677 31.1219,23.3118 53.2128,22.8448 22.0906,-0.4668 43.7518,-9.7894 53.7107,-23.3045 a 12.601074,12.601074 0 0 1 8.2508,-4.9873 12.601074,12.601074 0 0 1 1.9765,-0.1378 z" />
    </g>
  </g>
</svg>
