<?xml version="1.0" encoding="UTF-8" standalone="no"?>
<!-- Created with Inkscape (http://www.inkscape.org/) -->

<svg
   width="42mm"
   height="42mm"
   viewBox="0 0 42 42"
   version="1.1"
   id="svg199002"
   inkscape:version="1.1 (ce6663b3b7, 2021-05-25)"
   sodipodi:docname="28_planificar_vacaciones.svg"
   xmlns:inkscape="http://www.inkscape.org/namespaces/inkscape"
   xmlns:sodipodi="http://sodipodi.sourceforge.net/DTD/sodipodi-0.dtd"
   xmlns="http://www.w3.org/2000/svg"
   xmlns:svg="http://www.w3.org/2000/svg">
  <sodipodi:namedview
     id="namedview199004"
     pagecolor="#ffffff"
     bordercolor="#666666"
     borderopacity="1.0"
     inkscape:pageshadow="2"
     inkscape:pageopacity="0.0"
     inkscape:pagecheckerboard="0"
     inkscape:document-units="mm"
     showgrid="false"
     inkscape:zoom="0.67081229"
     inkscape:cx="297.40063"
     inkscape:cy="286.96552"
     inkscape:window-width="1866"
     inkscape:window-height="1016"
     inkscape:window-x="54"
     inkscape:window-y="27"
     inkscape:window-maximized="1"
     inkscape:current-layer="layer1" />
  <defs
     id="defs198999" />
  <g
     inkscape:label="Capa 1"
     inkscape:groupmode="layer"
     id="layer1"
     transform="translate(-26.330675,-72.478088)">
    <g
       id="g68108"
       transform="matrix(0.06876313,0,0,0.06876313,29.727314,75.874727)"
       style="display:inline">
      <path
         d="m 136,0 c -8.291,0 -15,6.709 -15,15 v 30 c 0,8.291 6.709,15 15,15 h 120 c 8.291,0 15,-6.709 15,-15 V 15 C 271,6.709 264.291,0 256,0 Z"
         id="path68098" />
      <circle
         cx="106"
         cy="406"
         r="15"
         id="circle68100" />
      <path
         d="m 377,30 h -76 v 15 c 0,24.814 -20.186,45 -45,45 H 136 C 111.186,90 91,69.814 91,45 V 30 H 15 C 6.709,30 0,36.709 0,45 v 452 c 0,8.291 6.709,15 15,15 h 362 c 8.291,0 15,-6.709 15,-15 V 45 c 0,-8.291 -6.709,-15 -15,-15 z M 95.395,176.605 c -5.859,-5.859 -5.859,-15.352 0,-21.211 5.859,-5.859 15.352,-5.859 21.211,0 L 136,174.789 155.395,155.394 c 5.859,-5.859 15.352,-5.859 21.211,0 5.859,5.859 5.859,15.352 0,21.211 L 157.211,196 l 19.395,19.395 c 5.859,5.859 5.859,15.352 0,21.211 -5.859,5.859 -15.352,5.859 -21.211,0 L 136,217.211 116.605,236.606 c -5.859,5.859 -15.352,5.859 -21.211,0 -5.859,-5.859 -5.859,-15.352 0,-21.211 L 114.789,196 Z m 201.21,218.79 c 5.859,5.859 5.859,15.352 0,21.211 -5.859,5.859 -15.352,5.859 -21.211,0 L 256,397.211 236.605,416.606 c -5.859,5.859 -15.352,5.859 -21.211,0 -5.859,-5.859 -5.859,-15.352 0,-21.211 L 234.789,376 215.394,356.605 c -5.859,-5.859 -5.859,-15.352 0,-21.211 5.859,-5.859 15.352,-5.859 21.211,0 L 256,354.789 275.395,335.394 c 5.859,-5.859 15.352,-5.859 21.211,0 5.859,5.859 5.859,15.352 0,21.211 L 277.211,376 Z m 30,-218.79 c -5.859,5.859 -15.352,5.859 -21.211,0 L 301,172.211 V 256 c 0,24.814 -20.186,45 -45,45 H 136 c -8.276,0 -15,6.724 -15,15 v 47.763 c 17.422,6.213 30,22.707 30,42.237 0,24.814 -20.186,45 -45,45 -24.814,0 -45,-20.186 -45,-45 0,-19.53 12.578,-36.024 30,-42.237 V 316 c 0,-24.814 20.186,-45 45,-45 h 120 c 8.276,0 15,-6.724 15,-15 v -83.789 l -4.395,4.395 c -5.859,5.859 -15.352,5.859 -21.211,0 -5.859,-5.859 -5.859,-15.352 0,-21.211 l 30,-30 c 5.859,-5.859 15.352,-5.859 21.211,0 l 30,30 c 5.86,5.859 5.86,15.351 0,21.21 z"
         id="path68102" />
      <path
         d="m 422,467 c 0,8.291 6.709,15 15,15 h 60 c 8.291,0 15,-6.709 15,-15 V 181 h -90 z"
         id="path68104" />
      <path
         d="M 452.703,67.182 426.026,151 h 81.947 L 481.296,67.182 c -3.954,-12.422 -24.638,-12.422 -28.593,0 z"
         id="path68106" />
    </g>
  </g>
</svg>
