<?xml version="1.0" encoding="UTF-8" standalone="no"?>
<!-- Created with Inkscape (http://www.inkscape.org/) -->

<svg
   width="42mm"
   height="42mm"
   viewBox="0 0 42 42"
   version="1.1"
   id="svg199535"
   inkscape:version="1.1 (ce6663b3b7, 2021-05-25)"
   sodipodi:docname="29_gestiones_casa.svg"
   xmlns:inkscape="http://www.inkscape.org/namespaces/inkscape"
   xmlns:sodipodi="http://sodipodi.sourceforge.net/DTD/sodipodi-0.dtd"
   xmlns="http://www.w3.org/2000/svg"
   xmlns:svg="http://www.w3.org/2000/svg">
  <sodipodi:namedview
     id="namedview199537"
     pagecolor="#ffffff"
     bordercolor="#666666"
     borderopacity="1.0"
     inkscape:pageshadow="2"
     inkscape:pageopacity="0.0"
     inkscape:pagecheckerboard="0"
     inkscape:document-units="mm"
     showgrid="false"
     inkscape:zoom="0.67081229"
     inkscape:cx="540.38962"
     inkscape:cy="398.77027"
     inkscape:window-width="1866"
     inkscape:window-height="1016"
     inkscape:window-x="54"
     inkscape:window-y="27"
     inkscape:window-maximized="1"
     inkscape:current-layer="layer1" />
  <defs
     id="defs199532" />
  <g
     inkscape:label="Capa 1"
     inkscape:groupmode="layer"
     id="layer1"
     transform="translate(37.960155,-42.896416)">
    <g
       id="g82766"
       transform="matrix(0.07488203,0,0,0.07488203,-36.129955,44.726616)"
       style="display:inline">
      <g
         id="g82666">
        <g
           id="g82664">
          <path
             d="M 5.099,190.6 C 1.8,196.599 0,203.8 0,211 v 210 c 0,6.899 1.5,13.5 4.501,19.2 L 129,315.7 Z"
             id="path82662" />
        </g>
      </g>
      <g
         id="g82672">
        <g
           id="g82670">
          <path
             d="m 239.7,337 -12.6,12.9 c -18.002,18.002 -46.198,18.002 -64.2,0 L 150.3,337 25.8,461.499 C 31.5,464.5 38.101,466 45,466 h 300 c 6.899,0 13.5,-1.5 19.2,-4.501 z"
             id="path82668" />
        </g>
      </g>
      <g
         id="g82678">
        <g
           id="g82676">
          <path
             d="M 345.001,166 H 45 c -6.301,0 -12.599,1.199 -17.999,3.9 154.029,155.758 126.824,128.326 157.5,159 5.4,5.7 15.599,5.7 20.999,0 30.672,-30.67 3.428,-3.199 157.5,-159 -5.4,-2.701 -11.699,-3.9 -17.999,-3.9 z"
             id="path82674" />
        </g>
      </g>
      <g
         id="g82684">
        <g
           id="g82682">
          <path
             d="M 467,46 H 165 c -19.501,0 -36.301,12.599 -42.299,30 H 407 c 41.4,0 75,33.6 75,75 v 192.299 c 17.401,-6 30,-22.8 30,-42.299 V 91 C 512,66.099 491.901,46 467,46 Z"
             id="path82680" />
        </g>
      </g>
      <g
         id="g82690">
        <g
           id="g82688">
          <path
             d="M 407,106 H 105 c -19.501,0 -36.301,12.599 -42.299,30 H 345 c 41.4,0 75,33.6 75,75 v 192.299 c 17.401,-6 32,-22.8 32,-42.299 V 151 c 0,-24.901 -20.099,-45 -45,-45 z"
             id="path82686" />
        </g>
      </g>
      <g
         id="g82696">
        <g
           id="g82694">
          <path
             d="M 384.901,190.6 261,315.7 385.499,440.2 C 388.5,434.5 390,427.899 390,421 V 211 c 0,-7.2 -1.8,-14.401 -5.099,-20.4 z"
             id="path82692" />
        </g>
      </g>
      <g
         id="g82698" />
      <g
         id="g82700" />
      <g
         id="g82702" />
      <g
         id="g82704" />
      <g
         id="g82706" />
      <g
         id="g82708" />
      <g
         id="g82710" />
      <g
         id="g82712" />
      <g
         id="g82714" />
      <g
         id="g82716" />
      <g
         id="g82718" />
      <g
         id="g82720" />
      <g
         id="g82722" />
      <g
         id="g82724" />
      <g
         id="g82726" />
    </g>
  </g>
</svg>
