<?xml version="1.0" encoding="UTF-8" standalone="no"?>
<!-- Created with Inkscape (http://www.inkscape.org/) -->

<svg
   width="42mm"
   height="42mm"
   viewBox="0 0 42 42"
   version="1.1"
   id="svg202735"
   inkscape:version="1.1 (ce6663b3b7, 2021-05-25)"
   sodipodi:docname="32_gestion_ropa.svg"
   xmlns:inkscape="http://www.inkscape.org/namespaces/inkscape"
   xmlns:sodipodi="http://sodipodi.sourceforge.net/DTD/sodipodi-0.dtd"
   xmlns="http://www.w3.org/2000/svg"
   xmlns:svg="http://www.w3.org/2000/svg">
  <sodipodi:namedview
     id="namedview202737"
     pagecolor="#ffffff"
     bordercolor="#666666"
     borderopacity="1.0"
     inkscape:pageshadow="2"
     inkscape:pageopacity="0.0"
     inkscape:pagecheckerboard="0"
     inkscape:document-units="mm"
     showgrid="false"
     inkscape:zoom="0.67081229"
     inkscape:cx="111.05938"
     inkscape:cy="-6.708285"
     inkscape:window-width="1866"
     inkscape:window-height="1016"
     inkscape:window-x="54"
     inkscape:window-y="27"
     inkscape:window-maximized="1"
     inkscape:current-layer="layer1" />
  <defs
     id="defs202732" />
  <g
     inkscape:label="Capa 1"
     inkscape:groupmode="layer"
     id="layer1"
     transform="translate(-75.633469,-150.17929)">
    <path
       id="path175510"
       style="display:inline;stroke-width:0.0727514"
       d="m 83.538203,152.55504 c -0.603181,0 -1.091237,0.48806 -1.091237,1.09124 v 6.62035 c 0,0.60318 0.488056,1.09124 1.091237,1.09124 h 3.273724 v 8.73018 H 85.72069 c -0.60318,0 -1.091251,0.48806 -1.091251,1.09124 0,0.60318 0.488071,1.09124 1.091251,1.09124 h 21.82558 c 0.60318,0 1.09123,-0.48806 1.09123,-1.09124 0,-0.60318 -0.48805,-1.09124 -1.09123,-1.09124 h -1.09124 v -8.73018 h 3.27373 c 0.60318,0 1.09122,-0.48806 1.09122,-1.09124 v -6.62035 c 0,-0.60318 -0.48804,-1.09124 -1.09122,-1.09124 h -8.73019 v 2.18248 c 0,2.40742 -1.957801,4.36496 -4.365223,4.36496 -2.407409,0 -4.364961,-1.95754 -4.364961,-4.36496 v -2.18248 z m 10.912669,0 v 2.18248 c 0,1.20316 0.979312,2.18248 2.182475,2.18248 1.203164,0 2.182735,-0.97932 2.182735,-2.18248 v -2.18248 z m -13.095143,13.16779 c -0.603193,0 -1.091251,0.48806 -1.091251,1.09124 v 8.73018 c 0,0.60319 0.488058,1.0915 1.091251,1.0915 h 1.091237 v 12.07655 c 0,0.60318 0.488056,1.09124 1.091237,1.09124 h 26.190557 c 0.60318,0 1.09122,-0.48806 1.09122,-1.09124 v -12.07655 h 1.09124 c 0.6032,0 1.09124,-0.48831 1.09124,-1.0915 v -8.73018 c 0,-0.60318 -0.48804,-1.09124 -1.09124,-1.09124 h -3.27372 v 2.3836 c 1.26748,0.45201 2.18248,1.65202 2.18248,3.07286 0,1.80525 -1.46847,3.27372 -3.27371,3.27372 H 85.72069 c -1.805261,0 -3.273724,-1.46847 -3.273724,-3.27372 0,-1.42084 0.915009,-2.62085 2.182473,-3.07286 v -2.3836 z m 6.547434,13.0954 h 17.460367 c 0.60319,0 1.0915,0.48806 1.0915,1.09124 v 4.36496 c 0,0.60318 -0.48831,1.09124 -1.0915,1.09124 H 87.903163 c -0.603179,0 -1.091236,-0.48806 -1.091236,-1.09124 v -4.36496 c 0,-0.60318 0.488057,-1.09124 1.091236,-1.09124 z m 1.091499,2.18248 v 2.18248 H 104.2723 v -2.18248 z" />
  </g>
</svg>
