<?xml version="1.0" encoding="UTF-8" standalone="no"?>
<!-- Created with Inkscape (http://www.inkscape.org/) -->

<svg
   width="42mm"
   height="42mm"
   viewBox="0 0 42 42"
   version="1.1"
   id="svg229028"
   inkscape:version="1.1 (ce6663b3b7, 2021-05-25)"
   sodipodi:docname="34_llevar_kids.svg"
   xmlns:inkscape="http://www.inkscape.org/namespaces/inkscape"
   xmlns:sodipodi="http://sodipodi.sourceforge.net/DTD/sodipodi-0.dtd"
   xmlns="http://www.w3.org/2000/svg"
   xmlns:svg="http://www.w3.org/2000/svg">
  <sodipodi:namedview
     id="namedview229030"
     pagecolor="#ffffff"
     bordercolor="#666666"
     borderopacity="1.0"
     inkscape:pageshadow="2"
     inkscape:pageopacity="0.0"
     inkscape:pagecheckerboard="0"
     inkscape:document-units="mm"
     showgrid="false"
     inkscape:zoom="0.67081229"
     inkscape:cx="444.9829"
     inkscape:cy="538.89889"
     inkscape:window-width="1866"
     inkscape:window-height="1016"
     inkscape:window-x="54"
     inkscape:window-y="27"
     inkscape:window-maximized="1"
     inkscape:current-layer="layer1" />
  <defs
     id="defs229025" />
  <g
     inkscape:label="Capa 1"
     inkscape:groupmode="layer"
     id="layer1"
     transform="translate(12.717134,-5.8207169)">
    <g
       id="g228112"
       transform="matrix(0.09484534,0,0,0.09484534,-12.108858,6.4289688)"
       style="display:inline">
      <g
         id="g228055">
        <path
           d="m 157.486,109.782 c 30.312,0 54.895,-24.577 54.895,-54.895 C 212.381,24.574 187.798,0 157.486,0 c -30.311,0 -54.893,24.574 -54.893,54.888 10e-4,30.317 24.583,54.894 54.893,54.894 z"
           id="path228047" />
        <path
           d="m 173.912,120.076 c -5.107,-1.932 -10.642,-2.999 -16.425,-2.999 -5.79,0 -11.33,1.068 -16.44,3.003 -14.381,4.362 -68.571,27.621 -76.404,131.721 -0.724,9.592 6.469,17.953 16.061,18.673 0.444,0.035 0.886,0.052 1.325,0.052 9.026,0 16.66,-6.965 17.349,-16.114 1.786,-23.729 6.163,-41.954 11.662,-55.932 v 53.622 c 0,3.657 0.433,7.214 1.232,10.626 v 146.95 c 0,11.225 9.101,20.321 20.321,20.321 11.225,0 20.321,-9.097 20.321,-20.321 V 298.327 c 1.505,0.147 3.027,0.223 4.571,0.223 1.542,0 3.068,-0.076 4.574,-0.223 v 111.352 c 0,11.225 9.097,20.321 20.318,20.321 11.224,0 20.321,-9.097 20.321,-20.321 V 262.716 c 0.797,-3.411 1.233,-6.96 1.233,-10.612 v -53.629 c 5.499,13.979 9.874,32.205 11.659,55.938 0.688,9.15 8.326,16.115 17.352,16.115 0.438,0 0.88,-0.018 1.324,-0.052 9.593,-0.72 16.782,-9.08 16.062,-18.673 -7.827,-104.144 -62.061,-127.379 -76.416,-131.727 z"
           id="path228049" />
        <path
           d="m 308.242,256.523 c 18.652,0 33.78,-15.125 33.78,-33.78 0,-18.655 -15.128,-33.778 -33.78,-33.778 -18.657,0 -33.781,15.123 -33.781,33.778 0,18.655 15.124,33.78 33.781,33.78 z"
           id="path228051" />
        <path
           d="m 365.376,343.916 c -4.816,-64.024 -38.133,-78.357 -47,-81.051 -3.153,-1.196 -6.564,-1.857 -10.133,-1.857 -3.566,0 -6.975,0.66 -10.123,1.854 -8.854,2.683 -42.194,17 -47.014,81.054 -0.447,5.902 3.979,11.048 9.881,11.492 0.274,0.02 0.545,0.032 0.816,0.032 5.556,0 10.255,-4.284 10.679,-9.914 1.098,-14.607 3.791,-25.823 7.178,-34.426 v 23.881 c 0,2.244 0.265,4.426 0.756,6.522 v 72.159 c 0,6.906 5.597,12.503 12.503,12.503 6.907,0 12.507,-5.597 12.507,-12.503 v -50.238 c 0.926,0.094 1.866,0.141 2.815,0.141 0.949,0 1.888,-0.047 2.813,-0.14 v 50.237 c 0,6.906 5.6,12.503 12.506,12.503 6.903,0 12.503,-5.597 12.503,-12.503 v -72.148 c 0.492,-2.098 0.758,-4.283 0.758,-6.533 v -23.773 c 3.384,8.592 6.082,19.776 7.176,34.318 0.423,5.629 5.123,9.914 10.679,9.914 0.267,0 0.54,-0.012 0.813,-0.032 5.904,-0.444 10.331,-5.59 9.887,-11.492 z"
           id="path228053" />
      </g>
      <g
         id="g228057" />
      <g
         id="g228059" />
      <g
         id="g228061" />
      <g
         id="g228063" />
      <g
         id="g228065" />
      <g
         id="g228067" />
      <g
         id="g228069" />
      <g
         id="g228071" />
      <g
         id="g228073" />
      <g
         id="g228075" />
      <g
         id="g228077" />
      <g
         id="g228079" />
      <g
         id="g228081" />
      <g
         id="g228083" />
      <g
         id="g228085" />
    </g>
  </g>
</svg>
