<?xml version="1.0" encoding="UTF-8" standalone="no"?>
<!-- Created with Inkscape (http://www.inkscape.org/) -->

<svg
   width="42mm"
   height="42mm"
   viewBox="0 0 42 42"
   version="1.1"
   id="svg231688"
   inkscape:version="1.1 (ce6663b3b7, 2021-05-25)"
   sodipodi:docname="35_deberes.svg"
   xmlns:inkscape="http://www.inkscape.org/namespaces/inkscape"
   xmlns:sodipodi="http://sodipodi.sourceforge.net/DTD/sodipodi-0.dtd"
   xmlns="http://www.w3.org/2000/svg"
   xmlns:svg="http://www.w3.org/2000/svg">
  <sodipodi:namedview
     id="namedview231690"
     pagecolor="#ffffff"
     bordercolor="#666666"
     borderopacity="1.0"
     inkscape:pageshadow="2"
     inkscape:pageopacity="0.0"
     inkscape:pagecheckerboard="0"
     inkscape:document-units="mm"
     showgrid="false"
     inkscape:zoom="0.67081229"
     inkscape:cx="79.754055"
     inkscape:cy="331.68742"
     inkscape:window-width="1866"
     inkscape:window-height="1016"
     inkscape:window-x="54"
     inkscape:window-y="27"
     inkscape:window-maximized="1"
     inkscape:current-layer="layer1" />
  <defs
     id="defs231685" />
  <g
     inkscape:label="Capa 1"
     inkscape:groupmode="layer"
     id="layer1"
     transform="translate(-83.916336,-60.645416)">
    <g
       id="g79697"
       transform="matrix(0.07557957,0,0,0.07557957,85.568004,62.297039)"
       style="display:inline">
      <path
         d="M 19.863,330.844 C 60.623,320.497 143.859,314.218 241,384.357 V 53.497 C 141.506,-10.899 55.732,-3.668 11.382,7.549 4.688,9.219 0,15.225 0,22.11 v 294.496 c 0,8.578 9.247,16.9 19.863,14.238 z M 76.205,84.501 c 42.217,0.586 84.741,11.221 126.387,31.597 7.441,3.647 10.518,12.627 6.885,20.068 -3.673,7.489 -12.695,10.494 -20.068,6.885 -37.646,-18.413 -75.864,-28.022 -113.613,-28.55 -8.291,-0.117 -14.912,-6.929 -14.795,-15.205 0.102,-8.291 5.712,-14.897 15.204,-14.795 z m 0,60 c 42.217,0.586 84.741,11.221 126.387,31.597 7.441,3.647 10.518,12.627 6.885,20.068 -3.673,7.489 -12.695,10.494 -20.068,6.885 -37.646,-18.413 -75.864,-28.022 -113.613,-28.55 -8.291,-0.117 -14.912,-6.929 -14.795,-15.205 0.102,-8.291 5.712,-15.425 15.204,-14.795 z m -0.205,60 h 0.205 c 42.217,0.586 84.741,11.221 126.387,31.597 7.441,3.647 10.518,12.627 6.885,20.068 -3.673,7.489 -12.695,10.494 -20.068,6.885 -37.646,-18.413 -75.864,-28.022 -113.613,-28.55 -8.291,-0.117 -14.912,-6.929 -14.795,-15.205 0.116,-8.218 6.811,-14.795 14.999,-14.795 z"
         id="path79689" />
      <path
         d="M 499.52,7.271 C 456.16,-3.736 370.476,-10.921 271,53.494 v 331.035 c 25.432,-18.347 50.524,-31.884 75,-41.453 v -90.17 c 0,-4.658 0.718,-9.258 2.124,-13.667 l 12.33,-51.498 c -12.693,4.18 -25.344,9.186 -37.863,15.311 -7.374,3.609 -16.395,0.604 -20.068,-6.885 -3.633,-7.441 -0.557,-16.421 6.885,-20.068 26.882,-13.154 54.382,-22.044 81.925,-27.004 4.969,-1.655 16.707,-2.377 18.814,-1.771 18.062,1.606 33.417,12.854 38.743,29.659 l 15.571,64.38 c 0.82,2.285 1.538,6.885 1.538,11.543 v 73.374 c 9.029,1.132 18.849,2.725 27.367,4.887 9.523,2.364 18.633,-4.872 18.633,-14.561 V 22.11 C 512,15.239 506.17,8.955 499.52,7.271 Z m -63.315,107.23 c -37.749,0.527 -75.967,10.137 -113.613,28.55 -7.374,3.609 -16.395,0.604 -20.068,-6.885 -3.633,-7.441 -0.557,-16.421 6.885,-20.068 41.646,-20.376 84.17,-31.011 126.387,-31.597 7.808,0.029 15.088,6.504 15.205,14.795 0.116,8.276 -6.505,15.088 -14.796,15.205 z"
         id="path79691" />
      <path
         d="m 376,496.976 c 0,8.291 6.709,15 15,15 h 30 c 8.291,0 15,-6.709 15,-15 v -226 h -60 z"
         id="path79693" />
      <path
         d="m 391.703,186.05 -13.218,54.926 h 55.031 L 420.298,186.05 c -3.956,-12.481 -24.64,-12.481 -28.595,0 z"
         id="path79695" />
    </g>
  </g>
</svg>
