<?xml version="1.0" encoding="UTF-8" standalone="no"?>
<!-- Created with Inkscape (http://www.inkscape.org/) -->

<svg
   width="42mm"
   height="42.33297mm"
   viewBox="0 0 42 42.33297"
   version="1.1"
   id="svg232566"
   inkscape:version="1.1 (ce6663b3b7, 2021-05-25)"
   sodipodi:docname="37_alimentar_kids.svg"
   xmlns:inkscape="http://www.inkscape.org/namespaces/inkscape"
   xmlns:sodipodi="http://sodipodi.sourceforge.net/DTD/sodipodi-0.dtd"
   xmlns="http://www.w3.org/2000/svg"
   xmlns:svg="http://www.w3.org/2000/svg">
  <sodipodi:namedview
     id="namedview232568"
     pagecolor="#ffffff"
     bordercolor="#666666"
     borderopacity="1.0"
     inkscape:pageshadow="2"
     inkscape:pageopacity="0.0"
     inkscape:pagecheckerboard="0"
     inkscape:document-units="mm"
     showgrid="false"
     inkscape:zoom="0.67081229"
     inkscape:cx="12.671205"
     inkscape:cy="537.40816"
     inkscape:window-width="1866"
     inkscape:window-height="1016"
     inkscape:window-x="54"
     inkscape:window-y="27"
     inkscape:window-maximized="1"
     inkscape:current-layer="layer1" />
  <defs
     id="defs232563" />
  <g
     inkscape:label="Capa 1"
     inkscape:groupmode="layer"
     id="layer1"
     transform="translate(-101.66534,-6.4430771)">
    <g
       id="g232284"
       transform="matrix(0.07847564,0,0,0.07847564,102.57558,7.5197981)"
       style="display:inline">
      <g
         id="g232220">
        <g
           id="g232218">
          <path
             d="m 78.5,0 c -33.137,0 -60,51.935 -60,116 v 19 c 0,15.266 5.706,29.193 15.097,39.778 9.794,11.037 14.903,25.46 14.903,40.216 V 482 c 0,16.569 13.431,30 30,30 16.569,0 30,-13.431 30,-30 V 214.994 c 0,-14.756 5.11,-29.178 14.903,-40.216 C 132.794,164.193 138.5,150.266 138.5,135 V 116 C 138.5,51.935 111.637,0 78.5,0 Z"
             id="path232216" />
        </g>
      </g>
      <g
         id="g232226">
        <g
           id="g232224">
          <path
             d="m 493.5,10 h -310 v 90 h 15.041 c -9.438,12.544 -15.041,28.129 -15.041,45 v 312 c 0,24.813 20.187,45 45,45 h 220 c 24.813,0 45,-20.187 45,-45 V 145 c 0,-16.871 -5.603,-32.456 -15.041,-45 H 493.5 Z m -30,330 h -250 V 220 h 250 z m 0,-270 h -250 V 40 h 250 z"
             id="path232222" />
        </g>
      </g>
      <g
         id="g232228" />
      <g
         id="g232230" />
      <g
         id="g232232" />
      <g
         id="g232234" />
      <g
         id="g232236" />
      <g
         id="g232238" />
      <g
         id="g232240" />
      <g
         id="g232242" />
      <g
         id="g232244" />
      <g
         id="g232246" />
      <g
         id="g232248" />
      <g
         id="g232250" />
      <g
         id="g232252" />
      <g
         id="g232254" />
      <g
         id="g232256" />
    </g>
  </g>
</svg>
