<?xml version="1.0" encoding="UTF-8" standalone="no"?>
<!-- Created with Inkscape (http://www.inkscape.org/) -->

<svg
   width="42mm"
   height="42mm"
   viewBox="0 0 42 42"
   version="1.1"
   id="svg233209"
   inkscape:version="1.1 (ce6663b3b7, 2021-05-25)"
   sodipodi:docname="38_cuidar_kids.svg"
   xmlns:inkscape="http://www.inkscape.org/namespaces/inkscape"
   xmlns:sodipodi="http://sodipodi.sourceforge.net/DTD/sodipodi-0.dtd"
   xmlns="http://www.w3.org/2000/svg"
   xmlns:svg="http://www.w3.org/2000/svg">
  <sodipodi:namedview
     id="namedview233211"
     pagecolor="#ffffff"
     bordercolor="#666666"
     borderopacity="1.0"
     inkscape:pageshadow="2"
     inkscape:pageopacity="0.0"
     inkscape:pagecheckerboard="0"
     inkscape:document-units="mm"
     showgrid="false"
     inkscape:zoom="0.67081229"
     inkscape:cx="228.82705"
     inkscape:cy="397.27954"
     inkscape:window-width="1866"
     inkscape:window-height="1016"
     inkscape:window-x="54"
     inkscape:window-y="27"
     inkscape:window-maximized="1"
     inkscape:current-layer="layer1" />
  <defs
     id="defs233206" />
  <g
     inkscape:label="Capa 1"
     inkscape:groupmode="layer"
     id="layer1"
     transform="translate(-44.474106,-43.290836)">
    <g
       id="g68129"
       transform="matrix(0.06960421,0,0,0.06960421,47.655428,46.472158)"
       style="display:inline">
      <path
         d="m 256,211 c 11.089,0 20.786,-6.035 25.972,-15 h -51.943 c 5.185,8.965 14.882,15 25.971,15 z"
         id="path68121" />
      <path
         d="M 406,151 C 406,83.793 361.269,26.435 300.235,7.421 300.658,9.897 301,12.405 301,15 c 0,24.814 -20.186,45 -45,45 -8.291,0 -15,-6.709 -15,-15 0,-8.291 6.709,-15 15,-15 8.276,0 15,-6.724 15,-15 0,-8.276 -6.724,-15 -15,-15 -82.705,0 -150,68.295 -150,151 0,82.705 67.295,150 150,150 82.705,0 150,-67.295 150,-150 z M 164.184,125.395 c -5.859,-5.859 -5.859,-15.352 0,-21.211 17.549,-17.549 46.084,-17.549 63.633,0 5.859,5.859 5.859,15.352 0,21.211 -5.859,5.859 -15.352,5.859 -21.211,0 -5.859,-5.859 -15.352,-5.859 -21.211,0 -5.86,5.859 -15.352,5.859 -21.211,0 z M 256,241 c -33.091,0 -60,-26.909 -60,-60 0,-8.291 6.709,-15 15,-15 h 90 c 8.291,0 15,6.709 15,15 0,33.091 -26.909,60 -60,60 z m 91.817,-115.605 c -5.859,5.859 -15.352,5.859 -21.211,0 -5.859,-5.859 -15.352,-5.859 -21.211,0 -5.859,5.859 -15.352,5.859 -21.211,0 -5.859,-5.859 -5.859,-15.352 0,-21.211 17.549,-17.549 46.084,-17.549 63.633,0 5.859,5.859 5.859,15.351 0,21.211 z"
         id="path68123" />
      <path
         d="m 497,166 c -24.853,0 -46,20.147 -46,45 v 82.192 l -62.3,100.269 -32.739,-49.116 c -8.892,-13.301 -28.33,-17.183 -41.602,-8.306 -13.755,9.155 -17.49,27.817 -8.32,41.602 L 361,460.082 V 497 c 0,8.291 6.709,15 15,15 h 90 c 8.291,0 15,-6.709 15,-15 l 1,-23.896 c 14.44,-61.088 22.09,-88.971 26.083,-110.378 2.399,-12.858 3.477,-23.377 3.917,-37.352 V 181 c 0,-8.285 -6.716,-15 -15,-15 z"
         id="path68125" />
      <path
         d="M 156.039,344.345 123.3,393.461 61,293.192 V 211 C 61,186.147 39.853,166 15,166 6.716,166 0,172.714 0,181 V 325.375 C 0.439,339.35 1.518,349.869 3.917,362.727 7.91,384.134 16.56,412.017 31,473.105 V 497 c 0,8.291 6.709,15 15,15 h 90 c 8.291,0 15,-6.709 15,-15 v -36.918 l 54.961,-82.441 c 9.17,-13.784 5.435,-32.446 -8.32,-41.602 -13.272,-8.877 -32.71,-4.995 -41.602,8.306 z"
         id="path68127" />
    </g>
  </g>
</svg>
