<?xml version="1.0" encoding="UTF-8" standalone="no"?>
<!-- Created with Inkscape (http://www.inkscape.org/) -->

<svg
   width="42mm"
   height="42mm"
   viewBox="0 0 42 42"
   version="1.1"
   id="svg235574"
   inkscape:version="1.1 (ce6663b3b7, 2021-05-25)"
   sodipodi:docname="39_bañar_kids.svg"
   xmlns:inkscape="http://www.inkscape.org/namespaces/inkscape"
   xmlns:sodipodi="http://sodipodi.sourceforge.net/DTD/sodipodi-0.dtd"
   xmlns="http://www.w3.org/2000/svg"
   xmlns:svg="http://www.w3.org/2000/svg">
  <sodipodi:namedview
     id="namedview235576"
     pagecolor="#ffffff"
     bordercolor="#666666"
     borderopacity="1.0"
     inkscape:pageshadow="2"
     inkscape:pageopacity="0.0"
     inkscape:pagecheckerboard="0"
     inkscape:document-units="mm"
     showgrid="false"
     inkscape:zoom="0.67081229"
     inkscape:cx="40.995075"
     inkscape:cy="85.716975"
     inkscape:window-width="1866"
     inkscape:window-height="1016"
     inkscape:window-x="54"
     inkscape:window-y="27"
     inkscape:window-maximized="1"
     inkscape:current-layer="layer1" />
  <defs
     id="defs235571" />
  <g
     inkscape:label="Capa 1"
     inkscape:groupmode="layer"
     id="layer1"
     transform="translate(-94.171318,-125.7251)">
    <g
       id="g233770"
       transform="matrix(0.06892388,0,0,0.06892388,97.530439,129.08059)"
       style="display:inline">
      <path
         d="m 210.44531,220.08594 c 60.67969,0 110.04297,-49.36328 110.04297,-110.04297 C 320.48828,49.367188 271.125,0 210.44531,0 160.1875,0 117.69922,33.871094 104.58984,79.980469 c 13.10938,13.289062 35.60547,45.628911 24.96094,104.570311 20.125,21.83203 48.9375,35.53516 80.89453,35.53516 z M 162.39453,63.882812 h 29.66016 v 29.664063 h -29.66016 z m 0,0"
         id="path233755" />
      <path
         d="M 84.125,101.92578 0,126.0625 c 6.003906,12.125 32.691406,56.22656 100.61328,49.69531 3.66016,-23.4414 1.28125,-44.09765 -7.003905,-60.20312 C 90.402344,109.32031 86.84375,104.83203 84.125,101.92578 Z m 0,0"
         id="path233757" />
      <path
         d="m 433.22656,217.5 c -31.22265,18.03125 -69.98047,17.98437 -101.15625,-0.12891 l -19.67578,-11.42968 c -25.55859,27.15234 -61.80469,44.13671 -101.94922,44.13671 -35.58984,0 -68.11718,-13.35546 -92.84765,-35.3125 C 79.59375,243.48437 54.980469,289.03516 54.980469,340.23047 54.980469,434.94531 132.03516,512 226.75,512 h 113.375 c 94.71484,0 171.76953,-77.05469 171.76953,-171.76953 V 172.05859 Z m 4.99219,112.92969 c -0.1875,1.16015 -4.85938,28.71484 -28.29688,54.34375 -19.00781,20.78515 -54.125,44.10547 -115.92578,44.10937 -6.92968,0 -14.1875,-0.29297 -21.80468,-0.91406 l 2.44531,-29.89453 c 75.12109,6.14453 108.64844,-23.45703 123.25,-46.71094 -34.39453,6.60156 -62.76172,-0.53125 -82.1211,-8.94531 -27.01171,-11.7461 -42.68359,-28.48438 -43.33593,-29.1875 l 11.00781,-10.1875 10.96484,-10.23047 c 0.125,0.13281 12.80469,13.4375 34.41016,22.56641 28.24609,11.92968 58.14062,11.52734 88.85937,-1.19532 L 442.5,303.90234 Z m 0,0"
         id="path233759" />
    </g>
  </g>
</svg>
