<?xml version="1.0" encoding="UTF-8" standalone="no"?>
<!-- Created with Inkscape (http://www.inkscape.org/) -->

<svg
   width="42mm"
   height="42mm"
   viewBox="0 0 42 42"
   version="1.1"
   id="svg237137"
   inkscape:version="1.1 (ce6663b3b7, 2021-05-25)"
   sodipodi:docname="39_dormir_kids.svg"
   xmlns:inkscape="http://www.inkscape.org/namespaces/inkscape"
   xmlns:sodipodi="http://sodipodi.sourceforge.net/DTD/sodipodi-0.dtd"
   xmlns="http://www.w3.org/2000/svg"
   xmlns:svg="http://www.w3.org/2000/svg">
  <sodipodi:namedview
     id="namedview237139"
     pagecolor="#ffffff"
     bordercolor="#666666"
     borderopacity="1.0"
     inkscape:pageshadow="2"
     inkscape:pageopacity="0.0"
     inkscape:pagecheckerboard="0"
     inkscape:document-units="mm"
     showgrid="false"
     inkscape:zoom="0.67081229"
     inkscape:cx="88.698435"
     inkscape:cy="471.81604"
     inkscape:window-width="1866"
     inkscape:window-height="1016"
     inkscape:window-x="54"
     inkscape:window-y="27"
     inkscape:window-maximized="1"
     inkscape:current-layer="layer1" />
  <defs
     id="defs237134" />
  <g
     inkscape:label="Capa 1"
     inkscape:groupmode="layer"
     id="layer1"
     transform="translate(-81.549797,-23.569717)">
    <g
       id="g236546"
       transform="matrix(0.07979734,0,0,0.07979734,82.121678,24.141598)">
      <path
         d="m 152.143,141.742 c 2.314,5.61 7.793,9.258 13.857,9.258 h 60 c 8.291,0 15,-6.709 15,-15 0,-8.291 -6.709,-15 -15,-15 h -23.789 l 34.395,-34.395 c 4.292,-4.292 5.581,-10.737 3.252,-16.348 C 237.543,64.647 232.064,61 226,61 h -60 c -8.291,0 -15,6.709 -15,15 0,8.291 6.709,15 15,15 h 23.789 l -34.395,34.395 c -4.291,4.292 -5.581,10.737 -3.251,16.347 z"
         id="path236534" />
      <path
         d="m 391,106 c 0,-8.291 -6.709,-15 -15,-15 h -53.789 l 64.395,-65.395 c 4.292,-4.292 5.581,-10.737 3.252,-16.348 C 387.543,3.647 382.064,0 376,0 h -90 c -8.291,0 -15,6.709 -15,15 0,8.291 6.709,15 15,15 h 53.789 l -64.395,65.395 c -4.292,4.292 -5.581,10.737 -3.252,16.348 2.314,5.61 7.793,9.258 13.857,9.258 h 90 C 384.291,121 391,114.291 391,106 Z"
         id="path236536" />
      <path
         d="m 106,391 c 57.99,0 105,-47.01 105,-105 0,-57.99 -47.01,-105 -105,-105 -37.544,0 -71.241,19.863 -89.804,49.495 0.366,12.35 18.052,18.913 26.212,9.465 5.435,-6.299 14.927,-6.943 21.152,-1.553 6.27,5.42 6.973,14.897 1.553,21.152 -8.555,9.902 -20.962,15.586 -34.043,15.586 -11.012,0 -20.978,-4.131 -28.808,-10.721 C 0.806,271.394 0,278.599 0,286 0,343.99 48.01,391 106,391 Z m 15,-75 c 8.276,0 15,-6.724 15,-15 0,-8.291 6.709,-15 15,-15 8.291,0 15,6.709 15,15 0,24.814 -20.186,45 -45,45 -8.291,0 -15,-6.709 -15,-15 0,-8.291 6.709,-15 15,-15 z"
         id="path236538" />
      <path
         d="m 452,421 h -61 l -25.415,-50.83 c -3.032,-6.05 -9.741,-9.448 -16.348,-7.998 -13.169,2.622 -25.225,9.712 -33.955,19.966 -11.587,13.638 -16.377,31.011 -13.462,48.926 C 306.449,459.54 333.271,482 364.208,482 H 422 c 0,16.538 13.462,30 30,30 16.538,0 30,-13.462 30,-30 v -30 c 0,-16.538 -13.462,-31 -30,-31 z"
         id="path236540" />
      <path
         d="M 460.804,220.902 C 435.762,204.395 404.75,198.761 376,204.212 v 134.423 c 6.866,4.299 12.589,10.468 16.406,18.087 L 409.545,391 H 452 c 8.058,0 15.725,1.65 22.751,4.541 C 497.346,376.266 512,347.952 512,316 c 0,-38.408 -19.146,-73.96 -51.196,-95.098 z"
         id="path236542" />
      <path
         d="m 346,332.476 v -118.5 l -47.241,20.242 C 288.241,238.715 277.109,241 265.697,241 h -32.99 c 5.043,14.145 8.293,29.145 8.293,45 0,42.627 -20.246,80.24 -51.194,105 H 211 c 8.284,0 15,6.714 15,15 0,8.284 -6.716,15 -15,15 h -90 c -16.569,0 -30,14.431 -30,31 v 15 c 0,8.284 6.716,15 15,15 h 150 c 11.494,0 21.879,-4.46 29.841,-11.574 -6.722,-10.032 -11.631,-22.271 -13.625,-34.543 -4.351,-26.733 2.827,-52.705 20.2,-73.169 13.464,-15.811 32.789,-27.171 53.584,-30.238 z"
         id="path236544" />
    </g>
  </g>
</svg>
