<?xml version="1.0" encoding="UTF-8" standalone="no"?>
<!-- Created with Inkscape (http://www.inkscape.org/) -->

<svg
   width="42mm"
   height="42mm"
   viewBox="0 0 42 42"
   version="1.1"
   id="svg241019"
   inkscape:version="1.1 (ce6663b3b7, 2021-05-25)"
   sodipodi:docname="42_ordenar_kids.svg"
   xmlns:inkscape="http://www.inkscape.org/namespaces/inkscape"
   xmlns:sodipodi="http://sodipodi.sourceforge.net/DTD/sodipodi-0.dtd"
   xmlns="http://www.w3.org/2000/svg"
   xmlns:svg="http://www.w3.org/2000/svg">
  <sodipodi:namedview
     id="namedview241021"
     pagecolor="#ffffff"
     bordercolor="#666666"
     borderopacity="1.0"
     inkscape:pageshadow="2"
     inkscape:pageopacity="0.0"
     inkscape:pagecheckerboard="0"
     inkscape:document-units="mm"
     showgrid="false"
     inkscape:zoom="0.67081229"
     inkscape:cx="245.22508"
     inkscape:cy="9.689745"
     inkscape:window-width="1866"
     inkscape:window-height="1016"
     inkscape:window-x="54"
     inkscape:window-y="27"
     inkscape:window-maximized="1"
     inkscape:current-layer="layer1" />
  <defs
     id="defs241016" />
  <g
     inkscape:label="Capa 1"
     inkscape:groupmode="layer"
     id="layer1"
     transform="translate(-40.13546,-145.84064)">
    <g
       id="g239618"
       transform="matrix(0.10287359,0,0,0.10287359,39.372481,143.9505)">
      <g
         id="g239563">
        <g
           id="g239561">
          <path
             d="M 394.188,193.147 C 347.769,146.728 286.79,120.173 221.551,117.705 V 86.492902 c 13.358,-4.248 23.064,-16.768 23.064,-31.515 0.001,-18.231 -14.832,-33.064 -33.064,-33.064 -18.232,0 -33.064,14.833 -33.064,33.064 0,14.747 9.706,27.266 23.064,31.515 V 117.705 c -65.239,2.468 -126.218,29.023 -172.637,75.442 -3.905,3.905 -3.905,10.237 0,14.142 3.906,3.905 10.236,3.905 14.143,0 19.499,-19.498 41.569,-34.888 65.123,-46.202 v 47.668 l -10.546,21.369 -25.891,3.762 c -3.768,0.547 -6.896,3.186 -8.073,6.806 -1.176,3.62 -0.195,7.594 2.53,10.251 l 18.734,18.262 -4.422,25.787 c -0.643,3.751 0.899,7.543 3.979,9.78 3.08,2.237 7.163,2.533 10.531,0.761 l 23.157,-12.174 23.157,12.174 c 1.463,0.77 3.061,1.149 4.652,1.149 2.073,0 4.137,-0.644 5.879,-1.91 3.079,-2.237 4.622,-6.029 3.979,-9.781 l -4.423,-25.786 18.735,-18.262 c 2.726,-2.657 3.706,-6.631 2.53,-10.251 -1.177,-3.62 -4.306,-6.258 -8.073,-6.806 l -25.891,-3.762 -10.546,-21.369 v -52.388 c 0,-1.251 -0.24,-2.444 -0.66,-3.548 23.86,-8.952 48.878,-13.942 74.031,-14.989 v 180.704 c -18.799,8.696 -31.881,27.724 -31.881,49.761 0,30.22 24.586,54.806 54.806,54.806 8.087,0 15.891,-1.732 23.193,-5.148 3.517,-1.645 5.763,-5.176 5.763,-9.058 0,-3.882 -2.247,-7.414 -5.764,-9.058 -12.201,-5.707 -20.086,-18.088 -20.086,-31.542 0,-13.453 7.885,-25.833 20.086,-31.541 3.517,-1.645 5.764,-5.176 5.764,-9.058 0,-3.882 -2.246,-7.413 -5.763,-9.058 -7.303,-3.416 -15.106,-5.148 -23.193,-5.148 -0.981,0 -1.956,0.029 -2.925,0.08 V 137.83 c 25.153,1.047 50.171,6.037 74.031,14.989 -0.42,1.104 -0.66,2.297 -0.66,3.548 v 52.388 l -10.546,21.369 -25.891,3.762 c -3.768,0.547 -6.896,3.186 -8.073,6.806 -1.176,3.62 -0.195,7.594 2.53,10.251 l 18.735,18.262 -4.423,25.786 c -0.644,3.751 0.899,7.543 3.979,9.781 1.742,1.266 3.806,1.91 5.879,1.91 1.592,0 3.189,-0.379 4.652,-1.149 l 23.157,-12.174 23.157,12.174 c 3.368,1.771 7.451,1.476 10.531,-0.761 3.079,-2.237 4.621,-6.029 3.979,-9.78 l -4.422,-25.787 18.734,-18.262 c 2.726,-2.657 3.706,-6.631 2.53,-10.251 -1.177,-3.62 -4.306,-6.258 -8.073,-6.806 l -25.891,-3.762 -10.546,-21.369 v -47.668 c 23.554,11.314 45.625,26.704 65.123,46.202 1.953,1.953 4.512,2.929 7.071,2.929 2.559,0 5.118,-0.977 7.071,-2.929 3.91,-3.905 3.91,-10.237 0.005,-14.142 z M 211.551,68.042902 c -7.204,0 -13.064,-5.861 -13.064,-13.064 0,-7.203 5.86,-13.065 13.064,-13.065 7.204,0 13.064,5.861 13.064,13.064 0,7.203 -5.86,13.065 -13.064,13.065 z"
             id="path239559"
             sodipodi:nodetypes="scccssccsscccccccccscccsscccccccscccsssscssssscccscccccccsscccsccccccccsscssssss" />
        </g>
      </g>
      <g
         id="g239565" />
      <g
         id="g239567" />
      <g
         id="g239569" />
      <g
         id="g239571" />
      <g
         id="g239573" />
      <g
         id="g239575" />
      <g
         id="g239577" />
      <g
         id="g239579" />
      <g
         id="g239581" />
      <g
         id="g239583" />
      <g
         id="g239585" />
      <g
         id="g239587" />
      <g
         id="g239589" />
      <g
         id="g239591" />
      <g
         id="g239593" />
    </g>
  </g>
</svg>
