<?xml version="1.0" encoding="UTF-8" standalone="no"?>
<!-- Created with Inkscape (http://www.inkscape.org/) -->

<svg
   width="42mm"
   height="42mm"
   viewBox="0 0 42 42"
   version="1.1"
   id="svg240060"
   inkscape:version="1.1 (ce6663b3b7, 2021-05-25)"
   sodipodi:docname="43_juguetes.svg"
   xmlns:inkscape="http://www.inkscape.org/namespaces/inkscape"
   xmlns:sodipodi="http://sodipodi.sourceforge.net/DTD/sodipodi-0.dtd"
   xmlns="http://www.w3.org/2000/svg"
   xmlns:svg="http://www.w3.org/2000/svg">
  <sodipodi:namedview
     id="namedview240062"
     pagecolor="#ffffff"
     bordercolor="#666666"
     borderopacity="1.0"
     inkscape:pageshadow="2"
     inkscape:pageopacity="0.0"
     inkscape:pagecheckerboard="0"
     inkscape:document-units="mm"
     showgrid="false"
     inkscape:zoom="0.67081229"
     inkscape:cx="188.57734"
     inkscape:cy="-112.55011"
     inkscape:window-width="1866"
     inkscape:window-height="1016"
     inkscape:window-x="54"
     inkscape:window-y="27"
     inkscape:window-maximized="1"
     inkscape:current-layer="layer1" />
  <defs
     id="defs240057" />
  <g
     inkscape:label="Capa 1"
     inkscape:groupmode="layer"
     id="layer1"
     transform="translate(-55.123505,-178.18327)">
    <g
       id="g239705"
       transform="matrix(0.76762302,0,0,0.76762302,58.506241,181.56594)">
      <g
         id="g239649">
        <g
           id="g239647">
          <path
             d="M 38.978,38.973 C 38.594,37.572 37.67,36.379 36.407,35.661 l -2.87,-1.637 c 0.524,-1.375 0.813,-2.875 0.813,-4.445 0,-1.094 -0.142,-2.152 -0.402,-3.16 l 1.288,-0.351 c 1.03,-0.281 1.907,-0.958 2.438,-1.884 0.526,-0.926 0.669,-2.025 0.39,-3.057 -0.586,-2.145 -2.798,-3.409 -4.941,-2.825 L 29.64,19.25 c 2.453,-1.767 4.023,-4.484 4.023,-7.531 0,-0.055 -10e-4,-0.109 -0.002,-0.164 2.412,-0.744 4.17,-2.994 4.17,-5.646 0,-3.258 -2.649,-5.908 -5.907,-5.908 -2.103,0 -3.95,1.104 -4.997,2.762 C 25.696,2.32 24.354,2.076 22.95,2.076 21.545,2.076 20.203,2.32 18.973,2.762 17.926,1.104 16.077,0 13.976,0 10.718,0 8.068,2.65 8.068,5.908 c 0,2.653 1.758,4.902 4.17,5.646 -10e-4,0.055 -0.002,0.109 -0.002,0.164 0,3.047 1.571,5.764 4.024,7.531 l -3.482,-0.948 c -2.145,-0.584 -4.355,0.681 -4.94,2.825 -0.279,1.03 -0.14,2.129 0.389,3.056 0.53,0.926 1.407,1.604 2.437,1.885 l 1.288,0.351 c -0.263,1.007 -0.403,2.065 -0.403,3.161 0,1.57 0.29,3.07 0.814,4.445 l -2.87,1.637 c -1.263,0.72 -2.187,1.912 -2.57,3.312 -0.385,1.402 -0.195,2.899 0.524,4.16 1.498,2.631 4.844,3.547 7.473,2.047 l 6.562,-3.738 c 0.481,0.064 0.972,0.099 1.47,0.099 0.498,0 0.988,-0.034 1.469,-0.099 l 6.562,3.738 c 2.631,1.5 5.976,0.584 7.472,-2.047 0.719,-1.261 0.907,-2.758 0.523,-4.16 z M 18.518,10.158 c 0.624,0 1.132,0.507 1.132,1.131 0,0.624 -0.508,1.132 -1.132,1.132 -0.625,0 -1.132,-0.507 -1.132,-1.132 0,-0.625 0.507,-1.131 1.132,-1.131 z m 8.864,0.083 c 0.625,0 1.132,0.507 1.132,1.132 0,0.625 -0.507,1.131 -1.132,1.131 -0.625,0 -1.132,-0.506 -1.132,-1.131 0,-0.625 0.507,-1.132 1.132,-1.132 z m -4.903,26.748 c -1.289,-1.282 -4.787,-4.765 -4.859,-4.836 -1.475,-1.476 -1.475,-3.866 0,-5.341 1.473,-1.471 3.854,-1.475 5.33,-0.01 1.476,-1.465 3.857,-1.461 5.33,0.01 1.476,1.475 1.476,3.865 0,5.341 -0.073,0.071 -3.571,3.554 -4.859,4.836 -0.261,0.259 -0.682,0.259 -0.942,0 z M 31.923,2.983 c 1.611,0 2.925,1.313 2.925,2.925 0,1.199 -0.728,2.231 -1.761,2.682 C 32.412,6.822 31.185,5.286 29.589,4.151 30.122,3.442 30.97,2.983 31.923,2.983 Z m -8.973,9.551 c 1.969,0 3.564,1.437 3.564,3.208 0,1.771 -1.597,3.208 -3.564,3.208 -1.968,0 -3.564,-1.436 -3.564,-3.208 0,-1.771 1.594,-3.208 3.564,-3.208 z M 11.052,5.908 c 0,-1.612 1.313,-2.925 2.925,-2.925 0.953,0 1.801,0.459 2.334,1.167 -1.596,1.136 -2.824,2.672 -3.498,4.438 -1.035,-0.449 -1.761,-1.481 -1.761,-2.68 z"
             id="path239643" />
          <ellipse
             cx="22.950001"
             cy="14.497"
             rx="1.594"
             ry="1.4349999"
             id="ellipse239645" />
        </g>
      </g>
      <g
         id="g239651" />
      <g
         id="g239653" />
      <g
         id="g239655" />
      <g
         id="g239657" />
      <g
         id="g239659" />
      <g
         id="g239661" />
      <g
         id="g239663" />
      <g
         id="g239665" />
      <g
         id="g239667" />
      <g
         id="g239669" />
      <g
         id="g239671" />
      <g
         id="g239673" />
      <g
         id="g239675" />
      <g
         id="g239677" />
      <g
         id="g239679" />
    </g>
  </g>
</svg>
